<?xml version="1.0" encoding="UTF-8" standalone="no"?>
<svg
   xmlns:dc="http://purl.org/dc/elements/1.1/"
   xmlns:cc="http://creativecommons.org/ns#"
   xmlns:rdf="http://www.w3.org/1999/02/22-rdf-syntax-ns#"
   xmlns:svg="http://www.w3.org/2000/svg"
   xmlns="http://www.w3.org/2000/svg"
   xmlns:sodipodi="http://sodipodi.sourceforge.net/DTD/sodipodi-0.dtd"
   xmlns:inkscape="http://www.inkscape.org/namespaces/inkscape"
   width="210mm"
   height="297mm"
   viewBox="0 0 210 297"
   version="1.1"
   id="svg8"
   inkscape:version="1.0.2 (e86c870, 2021-01-15)"
   sodipodi:docname="2021-04-27-owl.svg">
  <defs
     id="defs2" />
  <sodipodi:namedview
     id="base"
     pagecolor="#ffffff"
     bordercolor="#666666"
     borderopacity="1.0"
     inkscape:pageopacity="0.0"
     inkscape:pageshadow="2"
     inkscape:zoom="0.76791526"
     inkscape:cx="396.85039"
     inkscape:cy="561.25984"
     inkscape:document-units="mm"
     inkscape:current-layer="layer1"
     inkscape:document-rotation="0"
     showgrid="false"
     inkscape:window-width="1820"
     inkscape:window-height="1052"
     inkscape:window-x="-8"
     inkscape:window-y="-8"
     inkscape:window-maximized="1" />
  <metadata
     id="metadata5">
    <rdf:RDF>
      <cc:Work
         rdf:about="">
        <dc:format>image/svg+xml</dc:format>
        <dc:type
           rdf:resource="http://purl.org/dc/dcmitype/StillImage" />
        <dc:title></dc:title>
      </cc:Work>
    </rdf:RDF>
  </metadata>
  <g
     inkscape:label="Layer 1"
     inkscape:groupmode="layer"
     id="layer1">
    <path
       id="path884"
       style="fill:none;stroke:#000000;stroke-width:2;stroke-linecap:round;stroke-linejoin:miter;stroke-miterlimit:4;stroke-dasharray:none;stroke-opacity:1"
       d="M 57.883989,82.691414 C 42.087244,80.054881 42.057981,57.780142 56.329499,51.658405 70.607968,43.774469 80.796506,62.240831 90.265626,72.712343 101.16538,84.370749 119.70661,91.645545 134.46097,82.990111 146.34559,76.538873 146.76499,62.377405 136.45131,54.400298 103.63857,35.75497 94.039988,69.709293 89.528571,94.111186 88.86325,114.66011 87.374085,124.11474 94.42803,145.78797 c 13.58717,-15.10431 28.10368,-21.14568 27.46453,-38.19782 -7.57316,-11.241861 -7.07125,-5.08558 -7.9,-0.56289 -2.67403,17.9914 15.14612,16.95955 21.89066,5.88241 C 152.91634,94.44743 152.43486,79.822104 158.24029,56.377708 162.3939,41.319218 157.55014,22.175519 153.55234,7.6740148 144.83686,15.386492 144.73738,22.077549 137.04631,25.947784 127.3647,26.413802 102.71259,17.96277 90.995119,18.484883 74.89121,17.614691 64.163284,26.236303 48.236658,28.941995 38.375115,19.586556 41.014857,12.973899 28.091451,8.5651417 18.112706,62.527258 19.91626,108.44731 16.118653,159.18926 c 0.641817,26.64217 0.731784,50.64519 8.138543,79.46603 2.315635,20.94326 16.351364,39.53485 34.936935,48.96221 14.25381,6.60524 30.46164,1.44955 44.554849,-3.03949 15.75844,-5.8863 31.34192,-14.64359 39.97651,-29.68525 11.78268,-17.28141 12.29527,-38.75028 16.80082,-58.49712 3.96852,-26.03443 13.62885,-71.96908 -5.22071,-89.17976 -12.93333,-2.35019 -10.42283,28.56051 -13.08962,43.13334 -0.15523,18.36199 -17.45963,91.92768 19.99121,122.05845 13.19865,0.0212 14.96664,-39.12779 16.83986,-87.12643 4.06064,-51.78677 2.57835,-58.46178 -20.89972,-94.320685"
       sodipodi:nodetypes="ccccccccccccccccccccccccccc" />
  </g>
</svg>
