<?xml version="1.0" encoding="UTF-8"?>

<svg version="1.2" baseProfile="tiny" width="215.9mm" height="215.9mm" viewBox="0 0 21590 21590" preserveAspectRatio="xMidYMid" fill-rule="evenodd" stroke-width="28.222" stroke-linejoin="round" xmlns="http://www.w3.org/2000/svg" xmlns:xlink="http://www.w3.org/1999/xlink" xml:space="preserve">
 <g visibility="visible" id="MasterSlide_1_Default">
  <desc>Master slide
  </desc>
  <rect fill="none" stroke="none" x="0" y="0" width="21590" height="21590"/>
 </g>
 <g visibility="visible" id="Slide_1_page1">
  <g>
   <path fill="none" stroke="rgb(52,101,164)" id="Drawing_1_0" stroke-width="212" stroke-linejoin="round" d="M 5034,8537 L 5034,3323"/>
  </g>
  <g>
   <path fill="none" stroke="rgb(52,101,164)" id="Drawing_2_0" stroke-width="212" stroke-linejoin="round" d="M 15194,4856 L 15194,3323"/>
  </g>
  <g id="DrawingGroup_1">
   <g>
    <path fill="rgb(51,176,97)" stroke="none" d="M 3018,20134 C 3799,21131 5210,20860 6515,20134 7820,19408 5464,18328 4664,18353 3863,18379 2237,19136 3018,20134 Z"/>
    <path fill="none" stroke="rgb(52,101,164)" id="Drawing_3_0" stroke-width="212" stroke-linejoin="round" d="M 3018,20134 C 3799,21131 5210,20860 6515,20134 7820,19408 5464,18328 4664,18353 3863,18379 2237,19136 3018,20134 Z"/>
   </g>
   <g>
    <path fill="rgb(51,176,97)" stroke="none" d="M 8703,16552 C 9370,17433 10575,17193 11689,16552 12804,15911 10792,14958 10108,14980 9425,15003 8035,15672 8703,16552 Z"/>
    <path fill="none" stroke="rgb(52,101,164)" id="Drawing_4_0" stroke-width="212" stroke-linejoin="round" d="M 8703,16552 C 9370,17433 10575,17193 11689,16552 12804,15911 10792,14958 10108,14980 9425,15003 8035,15672 8703,16552 Z"/>
   </g>
   <g>
    <path fill="rgb(51,176,97)" stroke="none" d="M 5544,18070 C 6271,18942 7586,18705 8801,18070 10017,17435 7823,16491 7077,16513 6331,16535 4816,17198 5544,18070 Z"/>
    <path fill="none" stroke="rgb(52,101,164)" id="Drawing_5_0" stroke-width="212" stroke-linejoin="round" d="M 5544,18070 C 6271,18942 7586,18705 8801,18070 10017,17435 7823,16491 7077,16513 6331,16535 4816,17198 5544,18070 Z"/>
   </g>
   <g>
    <path fill="none" stroke="rgb(52,101,164)" id="Drawing_6_0" stroke-width="212" stroke-linejoin="round" d="M 4399,18353 C 4399,15899 4399,15593 4399,15593 L 7256,15593 7256,16513"/>
   </g>
   <g>
    <path fill="none" stroke="rgb(52,101,164)" id="Drawing_7_0" stroke-width="212" stroke-linejoin="round" d="M 6621,15593 C 6621,15184 6621,14467 6621,14059 7785,14059 10114,14059 10114,14059 L 10114,14980"/>
   </g>
  </g>
  <g id="DrawingGroup_2">
   <g>
    <path fill="rgb(33,153,255)" stroke="none" d="M 13775,17241 C 12864,15114 17574,15322 18538,16320 19503,17318 18865,19232 17585,19695 16306,20157 14687,19367 13775,17241 Z"/>
    <path fill="none" stroke="rgb(52,101,164)" id="Drawing_8_0" stroke-width="212" stroke-linejoin="round" d="M 13775,17241 C 12864,15114 17574,15322 18538,16320 19503,17318 18865,19232 17585,19695 16306,20157 14687,19367 13775,17241 Z"/>
   </g>
   <g>
    <path fill="rgb(33,153,255)" stroke="none" d="M 12141,14136 C 11600,13244 14398,13331 14970,13750 15543,14169 15165,14972 14404,15166 13644,15361 12683,15029 12141,14136 Z"/>
    <path fill="none" stroke="rgb(52,101,164)" id="Drawing_9_0" stroke-width="212" stroke-linejoin="round" d="M 12141,14136 C 11600,13244 14398,13331 14970,13750 15543,14169 15165,14972 14404,15166 13644,15361 12683,15029 12141,14136 Z"/>
   </g>
   <g>
    <path fill="none" stroke="rgb(52,101,164)" id="Drawing_10_0" stroke-width="212" stroke-linejoin="round" d="M 13976,13445 C 13976,13037 13977,12832 13977,12526 14824,12526 15670,12526 16517,12526 16517,13548 16517,15593 16517,15593"/>
   </g>
  </g>
  <g>
   <path fill="none" stroke="rgb(52,101,164)" id="Drawing_11_0" stroke-width="212" stroke-linejoin="round" d="M 7256,14059 L 7256,3323"/>
  </g>
  <g id="DrawingGroup_3">
   <g>
    <path fill="rgb(255,222,59)" stroke="none" d="M 535,14923 C -335,16455 2570,16176 3217,15201 3864,14227 3217,13948 2700,13809 2182,13670 1406,13391 535,14923 Z"/>
    <path fill="none" stroke="rgb(52,101,164)" id="Drawing_12_0" stroke-width="212" stroke-linejoin="round" d="M 535,14923 C -335,16455 2570,16176 3217,15201 3864,14227 3217,13948 2700,13809 2182,13670 1406,13391 535,14923 Z"/>
   </g>
   <g>
    <path fill="rgb(255,222,59)" stroke="none" d="M 3259,12975 C 2472,14315 5098,14071 5683,13218 6267,12365 5683,12121 5215,12000 4747,11878 4046,11634 3259,12975 Z"/>
    <path fill="none" stroke="rgb(52,101,164)" id="Drawing_13_0" stroke-width="212" stroke-linejoin="round" d="M 3259,12975 C 2472,14315 5098,14071 5683,13218 6267,12365 5683,12121 5215,12000 4747,11878 4046,11634 3259,12975 Z"/>
   </g>
   <g>
    <path fill="rgb(255,222,59)" stroke="none" d="M 5866,11374 C 5184,12459 7461,12261 7968,11571 8474,10881 7968,10683 7562,10585 7157,10486 6549,10289 5866,11374 Z"/>
    <path fill="none" stroke="rgb(52,101,164)" id="Drawing_14_0" stroke-width="212" stroke-linejoin="round" d="M 5866,11374 C 5184,12459 7461,12261 7968,11571 8474,10881 7968,10683 7562,10585 7157,10486 6549,10289 5866,11374 Z"/>
   </g>
   <g>
    <path fill="rgb(255,222,59)" stroke="none" d="M 10520,9150 C 10047,9980 11623,9829 11974,9301 12325,8772 11974,8621 11693,8546 11413,8470 10992,8319 10520,9150 Z"/>
    <path fill="none" stroke="rgb(52,101,164)" id="Drawing_15_0" stroke-width="212" stroke-linejoin="round" d="M 10520,9150 C 10047,9980 11623,9829 11974,9301 12325,8772 11974,8621 11693,8546 11413,8470 10992,8319 10520,9150 Z"/>
   </g>
   <g>
    <path fill="none" stroke="rgb(52,101,164)" id="Drawing_16_0" stroke-width="212" stroke-linejoin="round" d="M 1800,13695 C 1800,11900 1800,11451 1800,11451 L 4427,11451 4427,11900"/>
   </g>
   <g>
    <path fill="none" stroke="rgb(52,101,164)" id="Drawing_17_0" stroke-width="212" stroke-linejoin="round" d="M 3113,11460 C 3113,9665 3113,9890 3113,9890 L 6866,9881 6866,10504"/>
   </g>
   <g>
    <path fill="none" stroke="rgb(52,101,164)" id="Drawing_18_0" stroke-width="212" stroke-linejoin="round" d="M 4614,9881 C 4614,8086 4614,8535 4614,8535 L 9118,8535 9118,9382"/>
   </g>
   <g>
    <path fill="none" stroke="rgb(52,101,164)" id="Drawing_19_0" stroke-width="212" stroke-linejoin="round" d="M 6491,8484 L 6491,7587 11183,7587 11183,8484"/>
   </g>
   <g>
    <path fill="rgb(255,222,59)" stroke="none" d="M 8287,10238 C 7710,11253 9636,11069 10065,10422 10494,9776 10065,9592 9722,9499 9379,9407 8864,9222 8287,10238 Z"/>
    <path fill="none" stroke="rgb(52,101,164)" id="Drawing_20_0" stroke-width="212" stroke-linejoin="round" d="M 8287,10238 C 7710,11253 9636,11069 10065,10422 10494,9776 10065,9592 9722,9499 9379,9407 8864,9222 8287,10238 Z"/>
   </g>
  </g>
  <g>
   <path fill="none" stroke="rgb(52,101,164)" id="Drawing_21_0" stroke-width="212" stroke-linejoin="round" d="M 16146,12525 L 16146,3323"/>
  </g>
  <g id="DrawingGroup_4">
   <g>
    <path fill="rgb(255,0,89)" stroke="none" d="M 6346,5588 C 6110,5095 7416,4323 8301,4476 9187,4630 9686,5544 8627,5699 7568,5855 6582,6082 6346,5588 Z"/>
    <path fill="none" stroke="rgb(52,101,164)" id="Drawing_22_0" stroke-width="212" stroke-linejoin="round" d="M 6346,5588 C 6110,5095 7416,4323 8301,4476 9187,4630 9686,5544 8627,5699 7568,5855 6582,6082 6346,5588 Z"/>
   </g>
   <g>
    <path fill="rgb(255,0,89)" stroke="none" d="M 11430,7620 C 11141,7016 12738,6072 13821,6260 14903,6447 15514,7566 14219,7755 12925,7945 11719,8223 11430,7620 Z"/>
    <path fill="none" stroke="rgb(52,101,164)" id="Drawing_23_0" stroke-width="212" stroke-linejoin="round" d="M 11430,7620 C 11141,7016 12738,6072 13821,6260 14903,6447 15514,7566 14219,7755 12925,7945 11719,8223 11430,7620 Z"/>
   </g>
   <g>
    <path fill="rgb(255,0,89)" stroke="none" d="M 14225,8961 C 13916,8315 15627,7303 16787,7504 17947,7705 18601,8903 17214,9107 15827,9310 14534,9607 14225,8961 Z"/>
    <path fill="none" stroke="rgb(52,101,164)" id="Drawing_24_0" stroke-width="212" stroke-linejoin="round" d="M 14225,8961 C 13916,8315 15627,7303 16787,7504 17947,7705 18601,8903 17214,9107 15827,9310 14534,9607 14225,8961 Z"/>
   </g>
   <g>
    <path fill="rgb(255,0,89)" stroke="none" d="M 8888,6425 C 8627,5881 10067,5030 11042,5199 12018,5368 12568,6376 11401,6547 10235,6718 9148,6968 8888,6425 Z"/>
    <path fill="none" stroke="rgb(52,101,164)" id="Drawing_25_0" stroke-width="212" stroke-linejoin="round" d="M 8888,6425 C 8627,5881 10067,5030 11042,5199 12018,5368 12568,6376 11401,6547 10235,6718 9148,6968 8888,6425 Z"/>
   </g>
   <g>
    <path fill="rgb(255,0,89)" stroke="none" d="M 16559,10772 C 16191,10003 18226,8800 19605,9039 20984,9278 21762,10703 20113,10945 18463,11187 16926,11540 16559,10772 Z"/>
    <path fill="none" stroke="rgb(52,101,164)" id="Drawing_26_0" stroke-width="212" stroke-linejoin="round" d="M 16559,10772 C 16191,10003 18226,8800 19605,9039 20984,9278 21762,10703 20113,10945 18463,11187 16926,11540 16559,10772 Z"/>
   </g>
   <g>
    <path fill="none" stroke="rgb(52,101,164)" id="Drawing_27_0" stroke-width="212" stroke-linejoin="round" d="M 16220,7576 C 16220,6883 16220,6902 16220,6902 L 19521,6902 19520,8962"/>
   </g>
   <g>
    <path fill="none" stroke="rgb(52,101,164)" id="Drawing_28_0" stroke-width="212" stroke-linejoin="round" d="M 13427,6189 C 13427,5727 13427,6131 13427,5669 15120,5669 18505,5669 18505,5669 L 18504,6863"/>
   </g>
   <g>
    <path fill="none" stroke="rgb(52,101,164)" id="Drawing_29_0" stroke-width="212" stroke-linejoin="round" d="M 10634,5130 C 10634,5021 10634,4912 10634,4803 12665,4803 16727,4803 16727,4803 L 16727,5669"/>
   </g>
   <g>
    <path fill="none" stroke="rgb(52,101,164)" id="Drawing_30_0" stroke-width="212" stroke-linejoin="round" d="M 8096,4437 C 8096,3744 8096,4103 8096,3936 10127,3936 14189,3936 14189,3936 L 14189,4803"/>
   </g>
  </g>
  <g>
   <path fill="none" stroke="rgb(51,51,51)" id="Drawing_31_0" stroke-width="152" stroke-linejoin="round" d="M 1261,596 C 1304,787 1326,985 1343,1182 1353,1294 1380,1398 1408,1503 L 1443,1568 1460,1541"/>
  </g>
  <g>
   <path fill="none" stroke="rgb(51,51,51)" id="Drawing_32_0" stroke-width="152" stroke-linejoin="round" d="M 1391,678 C 1467,578 1576,602 1676,601 1759,599 1829,636 1896,678 1943,706 1979,749 2009,795 2040,841 2044,912 2009,955 1976,994 1932,1048 1866,1041 1798,1032 1721,1038 1663,1076 1595,1120 1519,1139 1443,1153 L 1391,1158 1430,1153"/>
  </g>
  <g>
   <path fill="none" stroke="rgb(51,51,51)" id="Drawing_33_0" stroke-width="152" stroke-linejoin="round" d="M 2312,1033 C 2340,895 2458,850 2564,808 2648,773 2733,739 2819,752 2887,761 2920,854 2934,925 2952,1015 2948,1110 2951,1201 2953,1268 2923,1326 2915,1391 2908,1446 2915,1506 2915,1564 L 2915,1586"/>
  </g>
  <g>
   <path fill="none" stroke="rgb(51,51,51)" id="Drawing_34_0" stroke-width="152" stroke-linejoin="round" d="M 2981,1206 C 2844,1173 2704,1191 2579,1240 2507,1267 2434,1256 2363,1284 2271,1320 2156,1361 2130,1465 2095,1603 2284,1639 2372,1659 2434,1673 2501,1655 2566,1651 2624,1646 2682,1599 2739,1625 2804,1653 2890,1661 2942,1608 L 2955,1595"/>
  </g>
  <g>
   <path fill="none" stroke="rgb(51,51,51)" id="Drawing_35_0" stroke-width="152" stroke-linejoin="round" d="M 4031,735 C 3893,599 3754,718 3629,799 3559,844 3491,896 3439,976 3400,1037 3376,1112 3344,1177 3298,1269 3288,1390 3314,1489 3349,1619 3465,1544 3543,1559 3613,1573 3677,1523 3750,1542 3828,1561 3937,1495 3944,1370 L 3944,1306 3944,1294"/>
  </g>
  <g>
   <path fill="none" stroke="rgb(51,51,51)" id="Drawing_36_0" stroke-width="152" stroke-linejoin="round" d="M 4022,544 C 4007,737 4011,933 4035,1125 4047,1223 4028,1314 4035,1412 4040,1480 4037,1551 4030,1621 4024,1678 4053,1751 4017,1795 3956,1868 3863,1900 3797,1968 3728,2039 3640,2053 3559,2077 3449,2111 3358,1969 3283,1919 3226,1881 3132,1816 3192,1720"/>
  </g>
  <g>
   <path fill="none" stroke="rgb(51,51,51)" id="Drawing_37_0" stroke-width="152" stroke-linejoin="round" d="M 6946,756 C 6895,676 6826,559 6717,549 6604,540 6536,684 6527,769 6513,892 6502,1017 6514,1140 6522,1230 6521,1322 6518,1413 6516,1470 6495,1536 6540,1585 L 6549,1629 6605,1659"/>
  </g>
  <g>
   <path fill="none" stroke="rgb(51,51,51)" id="Drawing_38_0" stroke-width="152" stroke-linejoin="round" d="M 6194,1244 C 6322,1203 6458,1173 6592,1184 6716,1194 6840,1163 6959,1132 L 7002,1115 7032,1097"/>
  </g>
  <g>
   <path fill="none" stroke="rgb(51,51,51)" id="Drawing_39_0" stroke-width="152" stroke-linejoin="round" d="M 7196,946 C 7166,1091 7249,1212 7269,1348 7280,1422 7293,1499 7317,1573 L 7339,1616 7339,1620"/>
  </g>
  <g>
   <path fill="none" stroke="rgb(51,51,51)" id="Drawing_40_0" stroke-width="152" stroke-linejoin="round" d="M 7262,1132 C 7352,1056 7448,1086 7534,1123 L 7564,1111"/>
  </g>
  <g>
   <path fill="none" stroke="rgb(51,51,51)" id="Drawing_41_0" stroke-width="152" stroke-linejoin="round" d="M 8203,919 C 8023,799 7890,1010 7823,1188 7786,1287 7763,1446 7836,1552 7903,1651 7983,1743 8078,1757 8171,1770 8279,1742 8355,1658 8427,1578 8468,1456 8493,1335 8506,1271 8531,1195 8506,1142 8461,1046 8404,943 8320,902 8264,875 8199,823 8147,902 L 8134,983"/>
  </g>
  <g>
   <path fill="none" stroke="rgb(51,51,51)" id="Drawing_42_0" stroke-width="152" stroke-linejoin="round" d="M 8726,873 C 8789,1024 8783,1185 8800,1344 8810,1439 8786,1536 8778,1633 L 8787,1616"/>
  </g>
  <g>
   <path fill="none" stroke="rgb(51,51,51)" id="Drawing_43_0" stroke-width="152" stroke-linejoin="round" d="M 8623,1123 C 8698,995 8831,941 8955,886 9033,852 9126,796 9210,825 9293,854 9317,971 9314,1054 9312,1109 9280,1162 9271,1218 9256,1305 9191,1370 9184,1460 L 9158,1555 9145,1599 9145,1629"/>
  </g>
  <g>
   <path fill="none" stroke="rgb(51,51,51)" id="Drawing_44_0" stroke-width="152" stroke-linejoin="round" d="M 9141,1067 C 9211,890 9385,907 9530,869 9622,846 9703,953 9685,1046 9674,1106 9695,1169 9685,1231 9676,1283 9663,1335 9647,1387 9628,1449 9606,1519 9629,1586 L 9603,1642 9573,1715 9577,1715"/>
  </g>
  <g>
   <path fill="none" stroke="rgb(51,51,51)" id="Drawing_45_0" stroke-width="152" stroke-linejoin="round" d="M 10687,449 C 10769,602 10739,778 10726,942 10719,1036 10716,1134 10731,1229 10740,1291 10761,1355 10752,1418 10739,1505 10750,1593 10739,1681 L 10743,1750 10769,1787"/>
  </g>
  <g>
   <path fill="none" stroke="rgb(51,51,51)" id="Drawing_46_0" stroke-width="152" stroke-linejoin="round" d="M 10368,1240 C 10527,1244 10651,1145 10787,1084 10874,1045 10972,1037 11059,994 L 11158,972 11119,985"/>
  </g>
  <g>
   <path fill="none" stroke="rgb(51,51,51)" id="Drawing_47_0" stroke-width="152" stroke-linejoin="round" d="M 11318,459 C 11357,602 11369,755 11366,907 11364,975 11361,1043 11378,1110 11400,1199 11413,1293 11417,1386 11419,1436 11413,1485 11404,1539 11392,1612 11364,1692 11400,1764 L 11404,1810 11404,1820"/>
  </g>
  <g>
   <path fill="none" stroke="rgb(51,51,51)" id="Drawing_48_0" stroke-width="152" stroke-linejoin="round" d="M 11301,1302 C 11396,1205 11493,1097 11616,1035 11678,1004 11740,1012 11806,998 11867,985 12016,930 12022,1049 12027,1149 11996,1250 11966,1348 11941,1429 11929,1516 11905,1598 11884,1668 11871,1743 11875,1819 L 11893,1875"/>
  </g>
  <g>
   <path fill="none" stroke="rgb(51,51,51)" id="Drawing_49_0" stroke-width="152" stroke-linejoin="round" d="M 12251,1432 C 12406,1422 12562,1482 12718,1446 12810,1424 12918,1410 12985,1334 13034,1279 13068,1187 13029,1109 12991,1032 12906,995 12830,989 12752,984 12686,1027 12614,1044 12523,1065 12481,1150 12424,1215 12343,1308 12221,1404 12229,1539 12238,1659 12322,1785 12428,1833 12538,1884 12665,1819 12782,1843 12878,1862 12972,1842 13050,1787 13124,1736 13161,1634 13145,1543 L 13128,1511"/>
  </g>
  <g>
   <path fill="none" stroke="rgb(51,51,51)" id="Drawing_50_0" stroke-width="152" stroke-linejoin="round" d="M 4445,1214 C 4566,1342 4728,1270 4847,1205 4930,1160 5047,1105 5063,998 5074,922 5055,815 4942,817 4868,818 4797,832 4726,838 4606,847 4454,894 4415,1011 4379,1119 4402,1242 4415,1356 4431,1499 4591,1526 4700,1577 4776,1613 4874,1594 4950,1551 L 5045,1443 5076,1391 5115,1374"/>
  </g>
  <g>
   <path fill="none" stroke="rgb(51,51,51)" id="Drawing_51_0" stroke-width="152" stroke-linejoin="round" d="M 1243,2097 C 1183,2253 1123,2410 1085,2578 1063,2676 1040,2772 1017,2869 995,2958 964,3046 931,3131 L 889,3176 902,3176"/>
  </g>
  <g>
   <path fill="none" stroke="rgb(51,51,51)" id="Drawing_52_0" stroke-width="152" stroke-linejoin="round" d="M 1162,1874 C 1241,2002 1286,2156 1346,2299 1389,2401 1457,2482 1512,2578 1550,2643 1561,2711 1572,2784 1583,2862 1607,2927 1610,3008 1613,3083 1627,3160 1644,3232 1663,3308 1655,3390 1644,3467 L 1632,3495"/>
  </g>
  <g>
   <path fill="none" stroke="rgb(51,51,51)" id="Drawing_53_0" stroke-width="152" stroke-linejoin="round" d="M 1026,2762 C 1139,2703 1231,2789 1333,2813 1388,2825 1440,2803 1495,2813 L 1538,2802 1581,2813 1585,2785"/>
  </g>
  <g>
   <path fill="none" stroke="rgb(51,51,51)" id="Drawing_54_0" stroke-width="152" stroke-linejoin="round" d="M 1887,2036 C 1897,2184 1881,2330 1879,2478 1877,2600 1893,2719 1901,2841 1906,2927 1902,3013 1913,3098 1921,3159 1932,3228 1909,3288 L 1896,3361 1887,3428 1901,3467"/>
  </g>
  <g>
   <path fill="none" stroke="rgb(51,51,51)" id="Drawing_55_0" stroke-width="152" stroke-linejoin="round" d="M 2178,2858 C 2281,2920 2413,2934 2511,2852 2555,2814 2669,2830 2669,2723 2669,2646 2630,2567 2571,2545 2496,2518 2419,2564 2357,2611 2293,2661 2239,2737 2195,2819 2143,2918 2129,3039 2123,3154 2117,3248 2156,3355 2225,3400 2305,3452 2392,3437 2477,3456 2569,3475 2658,3402 2720,3316 L 2775,3232 2848,3149"/>
  </g>
  <g>
   <path fill="none" stroke="rgb(51,51,51)" id="Drawing_56_0" stroke-width="152" stroke-linejoin="round" d="M 2976,2427 C 2979,2628 3105,2654 3194,2740 3252,2797 3309,2855 3351,2930 3412,3037 3500,3050 3565,3148 3604,3206 3630,3267 3664,3327 L 3672,3316"/>
  </g>
  <g>
   <path fill="none" stroke="rgb(51,51,51)" id="Drawing_57_0" stroke-width="152" stroke-linejoin="round" d="M 2865,3522 C 2957,3390 3035,3215 3164,3131 3257,3071 3308,2932 3403,2874 3463,2837 3532,2791 3561,2707 L 3591,2651 3620,2617"/>
  </g>
  <g>
   <path fill="none" stroke="rgb(51,51,51)" id="Drawing_58_0" stroke-width="152" stroke-linejoin="round" d="M 3915,2628 C 3996,2488 4124,2403 4257,2388 4322,2380 4378,2432 4406,2516 4432,2597 4466,2673 4487,2757 4507,2832 4501,2909 4483,2980 4464,3054 4434,3126 4432,3204 4429,3286 4423,3372 4440,3455 L 4432,3528 4440,3601 4444,3634"/>
  </g>
  <g>
   <path fill="none" stroke="rgb(51,51,51)" id="Drawing_59_0" stroke-width="152" stroke-linejoin="round" d="M 4547,2583 C 4448,2613 4379,2749 4285,2790 4215,2822 4141,2838 4080,2901 4038,2946 3990,2955 3950,3013 3903,3081 3897,3184 3899,3276 3901,3381 3967,3446 4027,3444 4085,3442 4146,3455 4201,3421 4249,3393 4299,3384 4349,3366 4408,3344 4432,3245 4486,3215"/>
  </g>
  <g>
   <path fill="none" stroke="rgb(51,51,51)" id="Drawing_60_0" stroke-width="152" stroke-linejoin="round" d="M 4765,2369 C 4834,2539 4792,2717 4821,2895 4842,3023 4894,3145 4868,3280 4854,3354 4849,3433 4821,3504 L 4826,3526"/>
  </g>
  <g>
   <path fill="none" stroke="rgb(51,51,51)" id="Drawing_61_0" stroke-width="152" stroke-linejoin="round" d="M 4661,2609 C 4756,2478 4876,2377 5009,2319 5093,2283 5151,2158 5235,2185 5303,2207 5335,2310 5366,2386 5391,2448 5380,2526 5366,2593 5344,2696 5328,2800 5324,2906 5321,2987 5309,3068 5291,3146 5277,3206 5303,3267 5328,3319 L 5399,3264"/>
  </g>
  <g>
   <path fill="none" stroke="rgb(51,51,51)" id="Drawing_62_0" stroke-width="152" stroke-linejoin="round" d="M 6282,2364 C 6155,2292 6012,2324 5907,2408 5838,2463 5817,2571 5751,2631 5687,2689 5682,2791 5686,2878 5689,2957 5669,3043 5704,3118 5738,3188 5781,3343 5892,3230 5945,3176 6023,3165 6094,3151 6194,3132 6297,3118 6390,3062 L 6409,3045"/>
  </g>
  <g>
   <path fill="none" stroke="rgb(51,51,51)" id="Drawing_63_0" stroke-width="152" stroke-linejoin="round" d="M 6263,1787 C 6204,1977 6242,2178 6242,2378 6243,2545 6255,2712 6255,2880 6255,2971 6255,3063 6260,3154 6264,3220 6257,3287 6269,3351 L 6263,3414"/>
  </g>
  <g>
   <path fill="none" stroke="rgb(51,51,51)" id="Drawing_64_0" stroke-width="152" stroke-linejoin="round" d="M 6446,2765 C 6561,2955 6721,2839 6780,2704 6815,2621 6944,2572 6916,2480 6893,2401 6796,2371 6714,2386 6607,2406 6530,2503 6479,2609 6452,2666 6456,2724 6446,2782 6433,2868 6421,2959 6432,3045 6444,3138 6420,3358 6545,3358 6752,3359 6856,3110 7043,3045"/>
  </g>
  <g>
   <path fill="none" stroke="rgb(51,51,51)" id="Drawing_65_0" stroke-width="152" stroke-linejoin="round" d="M 7298,2335 C 7282,2528 7347,2713 7344,2905 7343,2988 7318,3069 7325,3151 7332,3225 7307,3305 7340,3375 L 7344,3381"/>
  </g>
  <g>
   <path fill="none" stroke="rgb(51,51,51)" id="Drawing_66_0" stroke-width="152" stroke-linejoin="round" d="M 7142,2592 C 7198,2437 7318,2459 7419,2419 7479,2396 7537,2386 7598,2386 L 7645,2431 7678,2419"/>
  </g>
  <g>
   <path fill="none" stroke="rgb(51,51,51)" id="Drawing_67_0" stroke-width="152" stroke-linejoin="round" d="M 8781,2130 C 8563,2038 8448,2240 8319,2373 8251,2444 8158,2499 8129,2602 8097,2715 8082,2839 8089,2959 8095,3062 8205,3107 8262,3182 8313,3250 8396,3271 8475,3249 8578,3222 8664,3151 8718,3053 L 8775,3040 8798,3040"/>
  </g>
  <g>
   <path fill="none" stroke="rgb(51,51,51)" id="Drawing_68_0" stroke-width="152" stroke-linejoin="round" d="M 8931,2582 C 9036,2534 9144,2423 9266,2433 9340,2438 9429,2457 9456,2575 9480,2678 9483,2782 9491,2885 9497,2970 9467,3049 9474,3134 9480,3207 9516,3283 9485,3357 L 9456,3296"/>
  </g>
  <g>
   <path fill="none" stroke="rgb(51,51,51)" id="Drawing_69_0" stroke-width="152" stroke-linejoin="round" d="M 9681,2730 C 9520,2685 9343,2627 9180,2683 9092,2713 9044,2827 8955,2844 8870,2860 8840,2963 8839,3047 8838,3165 8955,3190 9024,3222 9087,3252 9159,3248 9226,3269 9298,3291 9378,3311 9451,3276 L 9508,3256 9526,3242"/>
  </g>
  <g>
   <path fill="none" stroke="rgb(51,51,51)" id="Drawing_70_0" stroke-width="152" stroke-linejoin="round" d="M 9842,1988 C 9747,2139 9745,2349 9819,2514 9865,2616 9854,2737 9872,2851 9885,2937 9902,3042 9836,3114 9784,3171 9778,3258 9773,3337 L 9762,3404 9756,3444"/>
  </g>
  <g>
   <path fill="none" stroke="rgb(51,51,51)" id="Drawing_71_0" stroke-width="152" stroke-linejoin="round" d="M 10493,2777 C 10391,2823 10166,2807 10124,2979 10103,3064 10141,3151 10176,3229 10218,3322 10308,3327 10378,3296 10450,3264 10534,3264 10597,3202 L 10661,3107 10667,3074"/>
  </g>
  <g>
   <path fill="none" stroke="rgb(51,51,51)" id="Drawing_72_0" stroke-width="152" stroke-linejoin="round" d="M 10580,1943 C 10614,2126 10643,2315 10638,2503 10636,2572 10636,2641 10626,2712 10604,2859 10592,3009 10568,3157 10556,3232 10546,3319 10580,3393 L 10644,3319 10667,3292"/>
  </g>
  <g>
   <path fill="none" stroke="rgb(51,51,51)" id="Drawing_73_0" stroke-width="152" stroke-linejoin="round" d="M 10939,3020 C 11070,2963 11259,2997 11361,2865 11404,2808 11419,2700 11343,2636 11239,2547 11115,2650 11026,2703 10935,2757 10890,2866 10893,2986 10896,3100 10905,3204 10927,3310 10951,3421 11069,3516 11171,3451 11258,3395 11426,3416 11470,3276 L 11527,3202"/>
  </g>
  <g>
   <path fill="none" stroke="rgb(51,51,51)" id="Drawing_74_0" stroke-width="152" stroke-linejoin="round" d="M 11701,2642 C 11711,2846 11772,3039 11793,3242 L 11834,3391 11857,3478 11891,3498"/>
  </g>
  <g>
   <path fill="none" stroke="rgb(51,51,51)" id="Drawing_75_0" stroke-width="152" stroke-linejoin="round" d="M 11620,2871 C 11781,2805 11917,2657 12087,2615 L 12186,2595 12238,2568"/>
  </g>
  <g>
   <path fill="none" stroke="rgb(51,51,51)" id="Drawing_76_0" stroke-width="152" stroke-linejoin="round" d="M 13373,2271 C 13302,2076 13114,2078 12998,2176 12921,2241 12840,2304 12779,2392 12694,2513 12643,2658 12565,2783 12497,2891 12539,3057 12623,3120 12701,3178 12772,3261 12871,3269 12964,3277 13050,3244 13137,3215 L 13194,3147 13211,3127"/>
  </g>
  <g>
   <path fill="none" stroke="rgb(51,51,51)" id="Drawing_77_0" stroke-width="152" stroke-linejoin="round" d="M 13465,2651 C 13179,2469 13195,2813 13200,3037 13204,3229 13330,3387 13448,3370 13569,3352 13664,3158 13661,2957 13660,2825 13638,2694 13587,2589 13536,2482 13446,2460 13373,2499 L 13373,2507"/>
  </g>
  <g>
   <path fill="none" stroke="rgb(51,51,51)" id="Drawing_78_0" stroke-width="152" stroke-linejoin="round" d="M 13912,1779 C 13899,1995 13873,2211 13859,2427 13852,2540 13860,2656 13865,2770 13869,2897 13876,3026 13872,3155 L 13872,3242 13885,3310 13912,3310"/>
  </g>
  <g>
   <path fill="none" stroke="rgb(51,51,51)" id="Drawing_79_0" stroke-width="152" stroke-linejoin="round" d="M 14297,2332 C 14061,2333 14019,2746 14083,3008 14124,3176 14211,3318 14308,3386 14386,3440 14469,3324 14527,3237 14610,3113 14562,2877 14510,2740 14457,2599 14372,2459 14268,2462 L 14141,2472 14095,2512"/>
  </g>
  <g>
   <path fill="none" stroke="rgb(51,51,51)" id="Drawing_80_0" stroke-width="152" stroke-linejoin="round" d="M 14885,2318 C 14877,2522 14853,2726 14845,2931 14841,3008 14844,3088 14845,3167 L 14851,3235 14868,3309 14885,3329"/>
  </g>
  <g>
   <path fill="none" stroke="rgb(51,51,51)" id="Drawing_81_0" stroke-width="152" stroke-linejoin="round" d="M 14735,2473 C 14859,2295 15041,2332 15202,2277 L 15261,2277 15312,2338"/>
  </g>
  <g>
   <path fill="none" stroke="rgb(51,51,51)" id="Drawing_82_0" stroke-width="152" stroke-linejoin="round" d="M 15501,2204 C 15490,2401 15478,2600 15461,2797 15453,2885 15452,2972 15449,3060 L 15461,3127 15466,3148"/>
  </g>
  <g>
   <path fill="none" stroke="rgb(51,51,51)" id="Drawing_83_0" stroke-width="152" stroke-linejoin="round" d="M 15846,2243 C 15900,2471 15774,2669 15789,2891 15797,3004 15771,3115 15777,3228 L 15760,3261"/>
  </g>
  <g>
   <path fill="none" stroke="rgb(51,51,51)" id="Drawing_84_0" stroke-width="152" stroke-linejoin="round" d="M 15777,2426 C 15942,2424 16046,2247 16204,2223 16284,2210 16382,2142 16441,2203 16499,2260 16391,2361 16366,2439 16333,2541 16243,2597 16204,2695 16175,2769 16162,2856 16170,2938 16177,3006 16119,3081 16181,3140 L 16210,3207 16221,3194"/>
  </g>
  <g>
   <path fill="none" stroke="rgb(51,51,51)" id="Drawing_85_0" stroke-width="152" stroke-linejoin="round" d="M 17197,2304 C 16792,2236 16784,2551 16608,2709 16538,2773 16543,2864 16583,2938 16621,3010 16667,3099 16768,3120 16877,3143 16984,3089 17079,3052 L 17247,2958 17332,2918"/>
  </g>
  <g>
   <path fill="none" stroke="rgb(51,51,51)" id="Drawing_86_0" stroke-width="152" stroke-linejoin="round" d="M 17054,2398 C 17146,2518 17132,2666 17210,2789 17244,2841 17266,2901 17262,2963 17259,3039 17255,3118 17222,3189 17190,3261 17158,3336 17095,3392 17012,3467 16885,3504 16818,3590 16771,3651 16680,3651 16622,3619 16557,3582 16491,3513 16402,3523 L 16397,3527"/>
  </g>
  <g>
   <path fill="none" stroke="rgb(51,51,51)" id="Drawing_87_0" stroke-width="152" stroke-linejoin="round" d="M 17964,2002 C 17862,2189 17819,2415 17850,2629 17865,2737 17850,2850 17870,2959 17887,3051 17867,3151 17904,3242 17934,3316 17955,3403 17937,3485"/>
  </g>
  <g>
   <path fill="none" stroke="rgb(51,51,51)" id="Drawing_88_0" stroke-width="152" stroke-linejoin="round" d="M 17823,2096 C 17971,2006 18132,2024 18289,1995 18366,1981 18449,1999 18532,2015 18647,2037 18633,2199 18600,2285 18542,2434 18416,2444 18309,2481 18229,2509 18087,2358 18082,2460 18077,2572 18244,2500 18326,2508 18456,2521 18659,2574 18677,2770 18694,2944 18568,3099 18465,3195 18409,3247 18345,3271 18279,3296 18169,3338 18057,3324 17947,3343 L 17916,3377"/>
  </g>
  <g>
   <path fill="none" stroke="rgb(51,51,51)" id="Drawing_89_0" stroke-width="152" stroke-linejoin="round" d="M 19184,2436 C 18856,2321 18889,2555 18814,2705 18773,2784 18805,2887 18780,2975 18754,3062 18741,3144 18760,3225 18778,3308 18776,3433 18881,3460 18952,3478 19045,3481 19103,3427 19185,3347 19249,3248 19299,3144 19338,3063 19313,2962 19299,2874 19286,2793 19285,2706 19232,2638 L 19218,2564 19259,2571"/>
  </g>
  <g>
   <path fill="none" stroke="rgb(51,51,51)" id="Drawing_90_0" stroke-width="152" stroke-linejoin="round" d="M 19865,2274 C 19488,2244 19669,2514 19596,2709 19562,2799 19593,2915 19589,3016 19586,3117 19615,3210 19636,3304 19667,3446 19764,3387 19838,3396 19950,3411 19981,3222 20014,3109 20044,3004 20056,2890 20081,2784 20107,2674 20053,2574 20014,2496 19968,2404 19881,2418 19811,2404 L 19825,2496 19845,2533"/>
  </g>
  <g>
   <path fill="none" stroke="rgb(51,51,51)" id="Drawing_91_0" stroke-width="152" stroke-linejoin="round" d="M 20418,2063 C 20330,2235 20362,2421 20337,2602 20324,2691 20326,2783 20310,2872 20295,2955 20307,3038 20317,3121 20326,3196 20339,3279 20310,3350 20276,3433 20353,3493 20317,3573 L 20330,3580"/>
  </g>
  <g>
   <path fill="none" stroke="rgb(51,51,51)" id="Drawing_92_0" stroke-width="152" stroke-linejoin="round" d="M 21004,2602 C 20805,2628 20749,2857 20566,2899 L 20499,2919 20425,2973 20364,3034"/>
  </g>
  <g>
   <path fill="none" stroke="rgb(51,51,51)" id="Drawing_93_0" stroke-width="152" stroke-linejoin="round" d="M 20418,2974 C 20436,3199 20612,3226 20762,3230 20843,3232 20886,3306 20964,3325 21032,3341 21096,3448 21031,3513"/>
  </g>
 </g>
</svg>