<?xml version="1.0" encoding="UTF-8" standalone="no"?>
<svg
   xmlns:dc="http://purl.org/dc/elements/1.1/"
   xmlns:cc="http://creativecommons.org/ns#"
   xmlns:rdf="http://www.w3.org/1999/02/22-rdf-syntax-ns#"
   xmlns:svg="http://www.w3.org/2000/svg"
   xmlns="http://www.w3.org/2000/svg"
   xmlns:sodipodi="http://sodipodi.sourceforge.net/DTD/sodipodi-0.dtd"
   xmlns:inkscape="http://www.inkscape.org/namespaces/inkscape"
   width="8.5in"
   height="8.5in"
   viewBox="0 0 215.9 215.9"
   version="1.1"
   id="svg8"
   inkscape:version="1.0.2 (e86c870, 2021-01-15)"
   sodipodi:docname="2021-05-15-abstract-painter.svg">
  <defs
     id="defs2">
    <inkscape:path-effect
       effect="bspline"
       id="path-effect3058"
       is_visible="true"
       lpeversion="1"
       weight="33.333333"
       steps="2"
       helper_size="0"
       apply_no_weight="true"
       apply_with_weight="true"
       only_selected="false" />
    <inkscape:path-effect
       effect="bspline"
       id="path-effect3054"
       is_visible="true"
       lpeversion="1"
       weight="33.333333"
       steps="2"
       helper_size="0"
       apply_no_weight="true"
       apply_with_weight="true"
       only_selected="false" />
    <inkscape:path-effect
       effect="bspline"
       id="path-effect3050"
       is_visible="true"
       lpeversion="1"
       weight="33.333333"
       steps="2"
       helper_size="0"
       apply_no_weight="true"
       apply_with_weight="true"
       only_selected="false" />
    <inkscape:path-effect
       effect="bspline"
       id="path-effect3046"
       is_visible="true"
       lpeversion="1"
       weight="33.333333"
       steps="2"
       helper_size="0"
       apply_no_weight="true"
       apply_with_weight="true"
       only_selected="false" />
    <inkscape:path-effect
       effect="bspline"
       id="path-effect3042"
       is_visible="true"
       lpeversion="1"
       weight="33.333333"
       steps="2"
       helper_size="0"
       apply_no_weight="true"
       apply_with_weight="true"
       only_selected="false" />
    <inkscape:path-effect
       effect="bspline"
       id="path-effect3038"
       is_visible="true"
       lpeversion="1"
       weight="33.333333"
       steps="2"
       helper_size="0"
       apply_no_weight="true"
       apply_with_weight="true"
       only_selected="false" />
    <inkscape:path-effect
       effect="bspline"
       id="path-effect3034"
       is_visible="true"
       lpeversion="1"
       weight="33.333333"
       steps="2"
       helper_size="0"
       apply_no_weight="true"
       apply_with_weight="true"
       only_selected="false" />
    <inkscape:path-effect
       effect="bspline"
       id="path-effect3030"
       is_visible="true"
       lpeversion="1"
       weight="33.333333"
       steps="2"
       helper_size="0"
       apply_no_weight="true"
       apply_with_weight="true"
       only_selected="false" />
    <inkscape:path-effect
       effect="bspline"
       id="path-effect3026"
       is_visible="true"
       lpeversion="1"
       weight="33.333333"
       steps="2"
       helper_size="0"
       apply_no_weight="true"
       apply_with_weight="true"
       only_selected="false" />
    <inkscape:path-effect
       effect="spiro"
       id="path-effect3022"
       is_visible="true"
       lpeversion="1" />
    <inkscape:path-effect
       effect="spiro"
       id="path-effect3018"
       is_visible="true"
       lpeversion="1" />
    <inkscape:path-effect
       effect="spiro"
       id="path-effect3014"
       is_visible="true"
       lpeversion="1" />
    <inkscape:path-effect
       effect="spiro"
       id="path-effect3010"
       is_visible="true"
       lpeversion="1" />
  </defs>
  <sodipodi:namedview
     id="base"
     pagecolor="#ffffff"
     bordercolor="#666666"
     borderopacity="1.0"
     inkscape:pageopacity="0.0"
     inkscape:pageshadow="2"
     inkscape:zoom="0.71813725"
     inkscape:cx="408"
     inkscape:cy="408"
     inkscape:document-units="px"
     inkscape:current-layer="layer1"
     inkscape:document-rotation="0"
     showgrid="false"
     units="in"
     borderlayer="true"
     inkscape:showpageshadow="false"
     inkscape:pagecheckerboard="false"
     height="8.5in"
     showguides="true"
     gridtolerance="1"
     inkscape:snap-global="true"
     inkscape:snap-nodes="true"
     objecttolerance="1"
     guidetolerance="1"
     inkscape:window-width="2743"
     inkscape:window-height="758"
     inkscape:window-x="-8"
     inkscape:window-y="2152"
     inkscape:window-maximized="1">
    <inkscape:grid
       type="xygrid"
       id="grid976"
       units="in"
       spacingx="12.7"
       spacingy="12.7"
       enabled="true"
       snapvisiblegridlinesonly="false"
       dotted="false" />
    <sodipodi:guide
       position="8.7272393,215.9"
       orientation="0,816"
       id="guide1209" />
    <sodipodi:guide
       position="215.9,215.9"
       orientation="816,0"
       id="guide1211" />
    <sodipodi:guide
       position="215.9,0"
       orientation="0,-816"
       id="guide1213" />
    <sodipodi:guide
       position="0,0"
       orientation="-816,0"
       id="guide1215" />
  </sodipodi:namedview>
  <metadata
     id="metadata5">
    <rdf:RDF>
      <cc:Work
         rdf:about="">
        <dc:format>image/svg+xml</dc:format>
        <dc:type
           rdf:resource="http://purl.org/dc/dcmitype/StillImage" />
        <dc:title></dc:title>
      </cc:Work>
    </rdf:RDF>
  </metadata>
  <g
     inkscape:label="Layer 1"
     inkscape:groupmode="layer"
     id="layer1">
    <path
       style="fill:#ff2a00;fill-opacity:1;stroke:#000000;stroke-width:0;stroke-linecap:round;stroke-miterlimit:4;stroke-dasharray:none"
       d=""
       id="path885"
       transform="scale(0.26458333)" />
    <path
       style="fill:none;stroke:#000000;stroke-width:1.32291667;stroke-linecap:butt;stroke-linejoin:miter;stroke-opacity:1;stroke-miterlimit:4;stroke-dasharray:none"
       d="m 106.60306,127.30332 c 0.76021,-2.27357 1.97262,-4.5007 2.28064,-6.82072 0.0714,-0.53783 -2.37032,-3.17477 -2.66074,-3.53668 -2.70496,-3.37072 -4.09642,-8.15687 -11.02307,-6.31548 -1.20913,0.32144 -2.80681,0.6684 -3.80105,1.2631 -2.12831,1.27303 -1.89096,1.62825 -3.04085,3.28405 -2.51212,3.61739 -3.80105,5.37027 -3.80105,9.59954 0,1.7592 0.53813,1.68319 1.14031,3.28405 0.43999,1.16966 0.59028,2.38777 1.14032,3.53667 0.34361,0.71772 1.01362,1.34731 1.52042,2.02096 2.18005,2.89773 2.736,4.00438 6.4618,6.31548 1.83092,1.13572 2.94353,2.175 5.32148,2.5262 1.6079,0.23747 3.29425,0 4.94137,0 3.15606,0 3.82033,0.1864 7.22201,-1.01048 2.07179,-0.72895 6.284,-5.96914 7.222,-7.32596 5.88772,-8.51652 7.72779,-14.99744 2.28064,-23.74623 -0.67714,-1.08757 -3.89962,-5.15187 -4.94137,-6.06287 -4.6511,-4.06727 -12.22037,-8.419436 -19.7655,-9.852155 -3.90779,-0.742038 -9.77036,-0.817344 -13.6838,-0.505239 -1.19344,0.09518 -2.31315,0.447858 -3.42095,0.757859 -10.64707,2.979401 -16.33943,10.343815 -19.00528,17.430735 -3.33949,8.87774 -4.34864,16.21766 -0.38011,25.00933 1.62982,3.6106 4.14817,7.92325 7.22201,11.11526 2.45135,2.54559 8.23399,6.83573 11.40317,8.84168 4.49259,2.8436 11.29889,3.52281 17.10475,4.29453 13.53632,1.79926 25.56896,2.20586 36.11003,-4.79977 3.96657,-2.63619 12.8868,-10.23107 15.20423,-13.64145 0.69587,-1.02405 3.61496,-8.58938 3.80106,-9.34692 3.15621,-12.84798 -0.4422,-25.32724 -10.26285,-36.62982 -2.40853,-2.771971 -4.98693,-5.547846 -8.36233,-7.831202 -3.80061,-2.571004 -8.3344,-4.647744 -12.92359,-6.568107 -2.30957,-0.966449 -5.04277,-1.390974 -7.60211,-2.020954 -5.71866,-1.407644 -11.62373,-0.992155 -17.48486,-0.505239 -2.02723,0.168412 -4.16536,0.03456 -6.08169,0.505239 -12.90719,3.17019 -19.98351,8.159621 -25.46708,16.420263 -5.42116,8.16662 -8.48986,17.60809 -6.08169,26.52504 1.06183,3.93171 3.85166,9.08722 5.70159,12.63097 2.50323,4.79526 5.55143,9.05024 9.50264,13.38883 0.80079,0.8793 6.48593,7.15306 8.36232,8.58906 8.13658,6.22694 11.77771,7.57582 20.90581,12.12574 2.08962,1.04157 3.8471,2.38517 6.08169,3.28405 7.34711,2.95545 14.0549,3.64961 22.42623,3.03143 7.82686,-0.57797 7.8365,-1.47609 15.58433,-5.30501 1.73144,-0.85566 3.41568,-1.76483 4.94138,-2.77881 3.67662,-2.4435 8.2628,-6.67522 10.26285,-9.59953 2.46333,-3.60172 3.80105,-11.95812 3.80105,-15.91503 0,-4.95879 -0.003,-9.57988 -1.52042,-14.39931 -3.24846,-10.31492 -13.01521,-21.33606 -28.12782,-25.76718 -2.30972,-0.67723 -4.82703,-0.98515 -7.222,-1.51572 -4.06014,-0.89946 -11.39981,-3.031432 -16.34454,-3.031432 -2.80341,0 -13.09678,2.197892 -14.44402,2.526192 -3.92739,0.95706 -7.02532,3.03931 -10.26285,4.79977 -9.75631,5.30516 -14.98103,13.30519 -15.58433,21.72527 -0.24376,3.40209 1.3565,6.75468 2.28063,10.10478 1.60881,5.8321 5.46312,10.95621 9.50264,16.16765 3.40045,4.38696 6.68076,8.24872 11.40317,12.12573 6.37493,5.23369 17.00587,12.93674 28.50793,12.63097 6.07594,-0.16153 12.49838,-3.48667 17.10475,-5.55763 6.27254,-2.82003 10.08822,-5.21138 14.44401,-9.34692 2.94128,-2.79255 5.3871,-4.7973 6.08169,-8.33644 0.45885,-2.33797 0.46887,-4.73624 0,-7.07335 -0.30188,-1.50473 -1.33544,-2.91254 -2.28063,-4.29452 -3.33321,-4.87359 -8.9268,-9.75024 -18.24507,-8.58906 -9.90305,1.23405 -15.00585,6.81062 -19.38539,12.12573 -2.60993,3.16747 -3.9968,6.04221 -4.94137,9.59954 -0.68825,2.59199 -1.36822,5.2011 -1.52042,7.8312 -0.41568,7.18272 4.25085,14.35405 9.50264,20.46217 1.18607,1.37947 2.24968,2.8331 3.80105,4.04191 2.15198,1.67681 4.79775,3.0434 7.22201,4.54715 3.86112,2.39504 3.94487,2.61691 8.36233,4.29454 6.95849,2.64265 14.96382,5.10565 23.18644,3.28405 5.61056,-1.24293 8.96721,-4.1373 12.54348,-7.07335 1.13305,-0.9302 2.50159,-1.74974 3.42096,-2.77881 6.72674,-7.52946 6.43583,-16.03103 6.08168,-24.50408 -0.19515,-4.66923 -1.2725,-22.7093 -2.66074,-28.79862 -2.55698,-11.21592 -4.71512,-15.14314 -11.40316,-25.51456 -1.15402,-1.78958 -5.04068,-3.66261 -7.22201,-4.29453 -9.78009,-2.83328 -22.70172,-2.54322 -31.92887,1.26309 -3.16611,1.30606 -4.86657,3.82468 -6.4618,6.06287 -0.76128,1.06812 -0.44139,2.35548 -0.3801,3.53667 0.0661,1.27352 0.21551,2.56752 0.76021,3.78929 1.9893,4.46208 9.70417,9.02356 17.10475,7.8312 11.3533,-1.82919 19.00248,-7.95284 23.18644,-14.90454 0.89283,-1.48344 1.85476,-2.97472 2.28064,-4.54715 2.59665,-9.58745 0.57653,-15.471164 -3.42095,-24.504088 -3.1118,-7.031579 -7.10986,-13.674585 -14.06391,-19.451697 -1.57108,-1.305184 -2.96743,-2.753586 -4.94138,-3.789291 -2.89932,-1.52124 -6.19865,-2.691374 -9.50264,-3.789292 -2.29466,-0.762522 -4.70881,-1.425716 -7.22201,-1.768336 -2.93692,-0.400387 -12.26729,-0.273264 -15.20422,0 -0.8309,0.07731 -16.01128,1.992156 -18.62517,2.778814 -14.30256,4.304387 -27.24319,11.167777 -25.46708,22.735749 0.29626,1.929586 2.3769,9.311368 4.94137,11.620495 2.60755,2.347918 5.74935,4.447291 9.12254,6.315486 1.26535,0.7008 2.94876,1.03983 4.56126,1.2631 7.53411,1.04316 12.14481,-2.66774 12.92359,-7.325967 0.4947,-2.958997 -0.84644,-10.680477 -3.80105,-12.883592 -3.94159,-2.939056 -8.45464,-5.56966 -13.3037,-7.831202 -7.01573,-3.272054 -21.4708,-4.088189 -29.64824,-3.031433 -4.57456,0.591163 -10.33788,2.939864 -13.6838,5.052389 -2.297,1.450265 -5.32704,4.598034 -6.8419,6.315485 -12.39629,14.054106 -2.69896,31.30601 8.36232,44.2084 2.69786,3.1469 6.00431,6.0646 9.50264,8.84168 1.10627,0.8782 2.45911,2.06498 4.18117,2.02096 2.21474,-0.0566 4.23518,-1.16905 5.70158,-2.27357 0.67063,-0.50513 0.0595,-1.34848 0,-2.02096 -0.33565,-3.79227 -2.84903,-6.72157 -9.88275,-5.30501 -9.12277,1.83728 -14.29091,12.5586 -16.34454,18.1886 -2.48642,6.81649 -6.64676,15.37915 -4.56126,22.73575 1.97625,6.97125 5.04278,15.4796 11.02306,21.72527 1.89124,1.97516 4.29308,3.71272 6.46179,5.55763 0.99893,0.84978 1.64567,1.97564 3.04085,2.5262 9.48747,3.74383 22.49447,3.07283 31.54877,-1.01048 1.63097,-0.73554 2.85877,-1.80745 4.18116,-2.77882 6.14434,-4.5134 6.25034,-9.1002 -3.80106,-11.87311 -10.52004,-2.9022 -30.48003,-1.19936 -38.77077,4.04191 -6.41923,4.05813 -3.93447,10.86101 2.28063,14.14669 3.28268,1.73543 7.36039,2.7935 11.40317,3.53667 4.13147,0.75947 20.24172,-2.5613 21.28591,-2.77881 9.25028,-1.92691 33.36772,-8.09072 33.82941,-15.91503 0.37249,-6.31285 -3.60786,-10.10143 -8.36233,-15.15716 -1.63938,-1.74327 -3.29179,-3.50112 -5.32148,-5.0524 -5.85671,-4.47624 -14.97909,-11.67036 -25.46708,-9.34691 -8.78406,1.94597 -4.1941,10.87045 -1.52042,14.14668 6.93512,8.49804 15.71526,14.16327 29.64824,17.17813 2.1985,0.47572 4.53227,0.68701 6.8419,0.75785 5.94866,0.18248 11.92807,0.30826 17.86497,0 4.95221,-0.25712 15.00334,-3.24682 18.62517,-5.55762 5.85529,-3.73579 9.94006,-9.54772 11.78328,-14.65193 0.6532,-1.80882 0.72478,-3.69759 0.76021,-5.55763 0.0914,-4.80012 0.0542,-9.60749 -0.38011,-14.3993 -0.74708,-8.24216 -5.28018,-17.03177 -7.60211,-25.26195 -0.56812,-2.01374 -0.76083,-4.0772 -1.52042,-6.06287 -2.72601,-7.12608 -6.62172,-14.03578 -13.3037,-19.956931 -2.01158,-1.782541 -8.28475,-6.742865 -12.16338,-7.073344 -8.99331,-0.766282 -11.77872,5.341305 -12.54348,9.852155 -1.40223,8.27085 9.34812,32.35621 27.74771,29.05124 21.45954,-3.85462 23.20001,-16.34357 26.60739,-28.79862 0.92038,-3.36429 2.33575,-6.692158 2.66074,-10.104775 0.67774,-7.116727 -1.2186,-16.175098 -8.36232,-21.977892 -4.27574,-3.473148 -9.84834,-7.08865 -17.10476,-6.820725 -1.0432,0.03851 -2.25129,0.05046 -3.04084,0.505239 -1.72092,0.991232 -2.58667,2.655746 -3.42095,4.04191"
       id="path833" />
    <path
       style="fill:none;stroke:#000000;stroke-width:1.32291667;stroke-linecap:butt;stroke-linejoin:miter;stroke-opacity:1;stroke-miterlimit:4;stroke-dasharray:none"
       d="m 72.39356,197.02629 c 24.41072,-12.26651 21.72867,-6.16454 9.50264,-35.61934 -1.61816,-3.89844 -13.02082,-12.94704 -20.1456,-13.89407 -10.15295,-1.34953 -16.61484,2.31373 -20.90581,7.57858 -4.98108,6.11159 -3.84976,19.0713 1.14032,25.26195 0.50295,2.964 4.83374,4.0911 6.8419,6.31548 1.00217,1.11008 3.76025,7.98891 3.80105,8.08383 0.25341,0.58944 0.0516,1.37588 0.76022,1.76833 1.0162,0.56281 2.48118,0.69938 3.80105,0.75786 0.6808,0.0302 1.31833,-0.26878 1.90053,-0.50524 1.70941,-0.69427 3.19015,-1.62698 4.94137,-2.27358 7.75188,-2.86218 9.22302,-1.74219 14.06391,-6.5681 1.94722,-1.9412 4.61864,-5.90789 4.94137,-8.58906 0.56305,-4.67753 -3.63476,-9.78981 -6.46179,-13.64145 -0.77171,-1.05141 -1.50574,-2.14867 -2.66074,-3.03144 -2.90244,-2.21831 -4.89,-2.75984 -8.36233,-4.04191"
       id="path835" />
    <path
       style="fill:none;stroke:#000000;stroke-width:1.32291667;stroke-linecap:butt;stroke-linejoin:miter;stroke-opacity:1;stroke-miterlimit:4;stroke-dasharray:none"
       d="M 60.99039,110.37782 C 76.23319,91.805388 71.79836,101.07399 60.61028,63.895844 59.17588,59.129307 52.2622,46.915539 43.12542,43.938908 c -3.07174,-1.000731 -7.04412,-0.770105 -10.26285,0 -3.48173,0.833029 -6.23247,2.740012 -8.74243,4.547149 -6.70054,4.824303 -7.19287,10.718555 -7.60211,17.178122 -0.61827,9.758997 3.09337,19.269604 8.36232,28.293377 0.30697,0.525725 5.36012,10.097444 10.64296,9.094304 6.38818,-1.21303 5.82841,-7.912319 5.70159,-11.11526 -0.36616,-9.247309 -3.25849,-18.22527 -9.50264,-26.525041 -3.69278,-4.908465 -4.53612,-6.374145 -13.3037,-5.810246 -1.36412,0.08774 -2.47994,0.853529 -3.42095,1.515717 -6.12424,4.309609 -6.08169,11.005257 -6.08169,16.420263 0,8.975914 0.86095,9.921502 1.90052,17.93598 0.31634,2.438743 0.3608,4.892607 0.76022,7.325967 0.57307,3.49126 2.28228,9.10196 3.04084,12.63097 0.45117,2.09896 0.56113,4.23045 1.14032,6.31549 1.6561,5.96184 3.59501,10.75402 6.08169,16.42026 0.85291,1.94348 1.79763,3.86875 2.66074,5.81025 0.78408,1.76372 0.99353,3.67696 2.28063,5.305 5.90737,7.47218 4.93312,10.06889 14.06391,9.85216 18.2856,-0.43402 29.78884,-7.56135 32.30898,-19.70432 0.8441,-4.06718 -4.17836,-11.71837 -7.22201,-15.15716 -0.60998,-0.68916 -5.63166,-5.81025 -8.36232,-5.81025 -2.96602,0 -6.75103,0.36598 -8.36233,2.02096 -5.04753,5.18439 -4.65364,18.32095 -5.32147,24.7567 -0.84779,8.1699 -2.55823,16.29449 -2.28064,24.50409 0.35844,10.6007 -0.34627,16.0907 8.74243,24.50408 2.51907,2.3319 6.46448,4.80042 10.64296,5.81025 7.17524,1.73407 17.08306,0.87127 23.94665,-0.75785 2.08726,-0.49543 3.85745,-1.4565 5.70159,-2.27358 1.96097,-0.86885 4.14583,-1.60224 5.70158,-2.77882 2.18101,-1.64943 3.90099,-3.57509 5.32148,-5.55762 4.57657,-6.38737 3.2653,-15.65961 -1.14032,-21.9779 -1.15247,-1.65281 -2.08003,-3.77311 -4.56126,-4.54714 -11.40402,-3.55757 -14.87874,-2.78036 -18.24508,3.53667 -3.91496,7.34653 -1.96849,12.9271 -1.52042,20.96741"
       id="path837" />
    <path
       style="fill:none;stroke:#000000;stroke-width:1.32291667;stroke-linecap:butt;stroke-linejoin:miter;stroke-opacity:1;stroke-miterlimit:4;stroke-dasharray:none"
       d="m 187.56556,100.27304 c 13.71266,-16.082608 10.47954,-8.671459 -0.76021,-40.166488 -1.65489,-4.637198 -7.88678,-8.95034 -15.58433,-8.336442 -3.71694,0.296435 -7.2327,1.570403 -10.26285,3.031433 -24.19886,11.667796 -11.44707,35.057753 1.90053,48.250317 1.95387,1.93117 9.41137,8.93119 15.20422,7.8312 0.9822,-0.18651 2.09411,-0.4456 2.66074,-1.01048 1.49871,-1.49407 -1.32882,-10.00883 -1.90053,-12.125731 -0.4785,-1.771815 -1.08522,-3.528268 -1.52042,-5.305009 -1.41198,-5.764505 -1.52367,-11.952615 -4.94137,-17.430742 -3.45849,-5.543493 -17.0529,-10.643235 -25.84719,-9.599539 -4.73312,0.561723 -9.34928,1.648681 -13.6838,3.031434 -2.51618,0.802686 -8.54262,5.287643 -10.26285,6.568105 -1.55599,1.15821 -3.31372,2.223889 -4.56127,3.536673 -2.44289,2.570631 -9.31618,11.811355 -9.50264,15.157166 -0.47057,8.444133 2.88064,13.993753 7.98222,21.977893 1.26554,1.98061 3.11035,3.78297 4.94137,5.55763 4.18815,4.0592 7.35391,5.63118 14.82412,4.29452 5.92695,-1.06051 8.43709,-4.59325 9.50264,-8.33643 1.08536,-3.81276 -0.93402,-6.82356 -3.04084,-10.3574 -5.67012,-9.51068 -13.67298,-18.609515 -26.60739,-24.504089 -5.38926,-2.456033 -11.31902,-1.320889 -17.10476,-0.505236 -1.77461,0.250176 -3.5876,0.403292 -5.32148,0.757856 -12.68476,2.593949 -14.67491,9.141551 -11.78327,17.178123 0.60749,1.688356 2.08179,3.185056 3.04084,4.799766 2.78612,4.69088 4.92037,9.75915 8.74243,14.14669 1.88426,2.16304 4.01474,4.22746 6.08169,6.31549 2.98042,3.01081 6.40535,6.54309 11.02307,8.58906 0.65049,0.28821 1.35815,-0.72976 1.52042,-2.77882 0.1437,-1.81455 -0.60791,-4.29442 -3.04085,-5.30501 -0.72075,-0.29937 -2.11394,-1.31176 -2.28063,-0.75785 -0.24972,0.82983 -0.25341,1.68413 -0.38011,2.52619"
       id="path839" />
    <path
       style="fill:none;stroke:#000000;stroke-width:1.32291667;stroke-linecap:butt;stroke-linejoin:miter;stroke-opacity:1;stroke-miterlimit:4;stroke-dasharray:none"
       d="m 178.06292,200.56296 c 24.70888,-7.90669 13.56471,-1.80818 9.88275,-36.88244 -0.78789,-7.50538 -3.67146,-12.95823 -16.34454,-13.89407 -4.06493,-0.30017 -8.15052,1.02478 -11.78328,2.27358 -23.03249,7.91765 -14.44527,23.45232 -3.80105,35.36672 1.56774,1.99807 3.96583,3.63498 5.70158,5.55763 2.44108,2.70392 4.83565,7.85679 10.64296,8.08382 2.70863,0.10589 4.17061,-2.12295 4.94137,-3.28406 1.31087,-1.97474 2.5087,-3.99138 3.42095,-6.06286 1.79184,-4.06879 2.56714,-13.59804 -3.04084,-16.67288 -11.67071,-6.39903 -23.03338,-6.76081 -37.25036,-4.79977 -2.62874,0.3626 -5.05512,1.20409 -7.60211,1.76833 -3.67894,0.81501 -15.03727,2.49532 -17.48486,4.79978 -2.18957,2.06152 -4.32822,4.33045 -4.94137,6.82072 -1.07847,4.38018 5.12216,16.18372 10.26285,19.45169 1.57526,1.00141 3.38885,1.85606 5.32148,2.5262 1.03565,0.35911 2.25579,0.56055 3.42095,0.50524 6.67088,-0.31668 10.9758,-1.44878 12.54349,-6.06287 1.5868,-4.67036 -3.04606,-14.05395 -5.32148,-17.68336 -1.39631,-2.22718 -3.35831,-4.28591 -5.32148,-6.31548 -5.05779,-5.22889 -17.61048,-18.7736 -29.64824,-20.20956 -18.72581,-2.23376 -27.56662,11.6184 -26.60739,21.97789 0.33689,3.63839 -0.0186,7.44777 1.90053,10.86264 2.11492,3.76335 5.90233,7.08146 9.88274,10.10478 0.7509,0.57034 2.29209,0.10717 3.42095,0 8.15085,-0.77387 20.07142,-2.7326 26.6074,-6.06287 1.92103,-0.97882 3.57622,-2.20816 4.94137,-3.53668 7.18606,-6.99325 8.029,-11.47664 7.60211,-19.70431 -0.4888,-9.42092 -3.37419,-16.95948 -9.88275,-25.51456 -7.63132,-10.0309 -17.61691,-20.73126 -35.72992,-22.98837 -2.14975,-0.26789 -4.53769,0.0666 -6.4618,0.75786 -15.31331,5.50122 -12.36728,18.11293 -10.64296,27.53551 0.36005,1.96749 0.8759,3.94892 1.90053,5.81025 0.89639,1.62836 2.52954,3.0331 3.80106,4.54715 1.76933,2.10683 3.23958,4.33886 5.32147,6.31548 1.28733,1.22224 4.39976,1.56759 6.0817,2.27358 1.37187,0.57584 2.53403,1.3473 3.80105,2.02096"
       id="path841" />
    <path
       style="fill:none;stroke:#000000;stroke-width:1.32291667;stroke-linecap:butt;stroke-linejoin:miter;stroke-opacity:1;stroke-miterlimit:4;stroke-dasharray:none"
       d="m 117.24602,83.852779 c 11.53408,-9.824045 11.70717,-35.299671 -14.06391,-32.335288 -3.12862,0.359878 -6.41732,1.363493 -8.36232,3.031433 -7.14054,6.123392 -1.4131,13.714205 1.90053,19.704315 1.83515,3.317443 8.35357,9.677814 15.20422,8.589062 3.22619,-0.512727 16.34455,-4.538125 16.34455,-8.841681 0,-1.597705 -0.40343,-3.549069 -2.28064,-4.547149 -9.06391,-4.819122 -20.60722,-5.469382 -31.54877,-5.810247 -7.39478,-0.230371 -12.69782,1.693312 -19.00528,3.789291 -1.67761,0.557475 -5.78557,1.318203 -6.46179,2.778815 -1.12424,2.42831 6.25927,7.729278 7.222,8.58906 1.90264,1.699168 11.13889,8.86734 14.44402,9.599539 0.86627,0.191908 1.18799,-0.89967 0,-3.031433 -2.9003,-5.204368 -2.42015,-4.456319 -7.60212,-8.589061 -1.61003,-1.284044 -3.02306,-2.70839 -4.94137,-3.789291 -3.94345,-2.22201 -8.20048,-4.198751 -12.54349,-6.062868 -11.09571,-4.762535 -20.5257,-0.304256 -20.5257,7.578583 0,5.234275 1.71639,6.185881 5.70159,11.367875 3.85783,5.016384 7.70698,8.414845 15.96443,10.610017 2.99947,0.797385 8.4037,0.549919 11.40317,0 12.05625,-2.210377 13.91306,-7.386467 13.6838,-15.157166 -0.0835,-2.829128 -1.56625,-7.603288 -3.80105,-10.104777 -1.81125,-2.027392 -5.09956,-4.598471 -6.8419,-2.778815 -0.61598,0.643311 -0.25341,1.515717 -0.38011,2.273575"
       id="path843" />
    <path
       style="fill:none;stroke:#000000;stroke-width:1.32291667;stroke-linecap:butt;stroke-linejoin:miter;stroke-opacity:1;stroke-miterlimit:4;stroke-dasharray:none"
       d="m 184.52472,138.6712 c 23.86559,-7.11017 16.37571,-2.01827 1.90052,-33.34577 -0.6323,-1.36844 -3.56428,-2.19851 -5.70158,-2.02095 -3.54263,0.2943 -6.79576,1.73691 -9.50264,3.28405 -3.7514,2.14414 -8.17584,4.41065 -9.50264,7.57858 -5.33318,12.73376 -0.5614,23.21071 12.16338,32.33529 7.20677,5.16777 17.98506,1.27612 19.38539,-5.05239 0.64596,-2.91929 -5.89624,-11.39748 -6.4618,-12.12573 -2.53002,-3.25783 -7.74749,-9.65751 -13.3037,-11.87312 -1.90557,-0.75986 -5.7676,2.06697 -6.08169,2.5262 -3.48064,5.08914 -2.66073,7.06211 -2.66073,12.37835 0,7.66602 -0.25266,4.38519 0.3801,9.85216"
       id="path845" />
    <path
       style="fill:none;stroke:#000000;stroke-width:1.32291667;stroke-linecap:butt;stroke-linejoin:miter;stroke-opacity:1;stroke-miterlimit:4;stroke-dasharray:none"
       d="m 33.62278,207.13106 c 24.34256,-8.08907 22.12518,-4.21386 7.60212,-36.88243 -0.97197,-2.18637 -7.17903,-1.50373 -10.26286,-0.50524 -2.75496,0.892 -3.60808,3.36935 -4.56126,5.30501 -1.36062,2.76305 -1.11931,5.78612 -2.28064,8.58906 -1.25588,3.03114 -3.4913,5.84907 -4.94137,8.84168 -2.47262,5.10292 -3.53558,10.57718 -2.28063,15.91502 0.0209,0.0888 1.3419,7.32597 4.18116,7.32597 6.33381,0 10.0867,-3.93203 13.6838,-6.82073 3.92829,-3.15466 11.40317,-9.74603 11.40317,-13.64145 0,-5.97091 -27.08168,-2.29214 -30.02835,-5.30501 -3.1719,-3.24316 3.71187,-8.62099 4.94138,-10.35739 3.90468,-5.51451 4.18116,-5.66841 4.18116,-11.11526 0,-1.77034 0.015,-3.55426 -0.38011,-5.30501 -0.40065,-1.77515 -5.65773,-11.1444 -4.56126,-11.87311 1.09749,-0.7294 4.32337,-0.17629 5.70158,-0.25262 2.08975,-0.11574 7.28004,-1.7102 9.12254,-1.01048 5.83648,2.21654 13.74199,10.33683 14.82412,14.65193 1.02804,4.09946 0.60673,4.11149 -1.14032,6.82073"
       id="path847" />
    <path
       style="fill:none;stroke:#000000;stroke-width:1.32291667;stroke-linecap:butt;stroke-linejoin:miter;stroke-opacity:1;stroke-miterlimit:4;stroke-dasharray:none"
       d="m 102.80201,205.61535 c -0.50681,-3.11564 2.77221,-8.05015 -1.52042,-9.34692 -6.04325,-1.82562 -14.27554,0.21522 -19.38539,3.03144 -2.35692,1.29897 2.6788,3.66429 3.80105,5.55762 0.52949,0.89329 0.91501,1.83046 1.14032,2.77881 0.0926,0.38981 -0.66605,2.76465 1.14032,3.03144 2.84577,0.42029 11.24645,-4.65429 13.6838,-6.06287 3.43967,-1.98784 7.28209,-3.9525 7.98222,-7.32596 0.20189,-0.9728 -1.13516,-1.90589 -2.28064,-2.52619 -7.32236,-3.96528 -13.48488,-4.78279 -22.80633,-0.50525 -2.00553,0.92033 -0.76021,3.19985 -1.14032,4.79977"
       id="path849" />
    <path
       style="fill:none;stroke:#000000;stroke-width:1.32291667;stroke-linecap:butt;stroke-linejoin:miter;stroke-opacity:1;stroke-miterlimit:4;stroke-dasharray:none"
       d="m 133.21046,210.92036 c 28.30862,5.43339 3.79377,-5.02057 1.14031,-5.30501 -1.88044,-0.20157 -0.84207,2.56119 -0.3801,3.78929 0.4598,1.22236 3.94304,6.70913 6.46179,6.82073 2.85844,0.12665 4.14608,-2.79091 4.94138,-3.7893 2.02762,-2.5454 9.35254,-9.27422 4.94137,-12.37835 -5.46567,-3.84618 -17.0688,-6.61589 -21.66602,-0.50524 -2.91984,3.88107 3.57243,9.50618 9.12254,10.3574 2.57056,0.39425 7.05838,0.33125 9.88274,0 0.90837,-0.10654 1.75625,-0.38501 2.66074,-0.50524 1.48817,-0.19781 1.50941,0.11533 0.38011,-1.01048"
       id="path851" />
    <path
       style="fill:none;stroke:#000000;stroke-width:1.32291667;stroke-linecap:butt;stroke-linejoin:miter;stroke-opacity:1;stroke-miterlimit:4;stroke-dasharray:none"
       d="m 175.02208,182.37436 c 3.92775,-1.3473 8.84674,-6.23749 11.78327,-4.04191 3.66722,2.7419 0.0112,7.65253 -2.66074,10.86263 -1.19084,1.43068 -4.9342,1.6116 -7.222,1.01048 -6.24262,-1.64024 -14.05861,-9.04376 -15.20423,-13.13621 -0.33423,-1.19395 1.34858,-2.57322 3.04085,-3.03143 2.2325,-0.60448 4.84298,-0.006 7.222,0.25262 4.61121,0.50148 9.20379,1.13875 13.6838,2.02095 0.52816,0.10401 8.07456,1.43291 8.36233,3.53667 0.2362,1.7268 -4.25645,2.294 -6.8419,2.5262 -4.80224,0.4313 -20.43103,-0.004 -20.90581,-5.05239 -0.4906,-5.21681 22.17583,-10.17137 26.60739,-11.36788 4.05446,-1.09468 8.04447,-2.30137 12.16338,-3.28405 0.84323,-0.20117 1.88287,-0.54803 2.66074,-0.25261 1.25267,0.47573 -0.6792,1.94019 -2.28063,3.53666"
       id="path853" />
    <path
       style="fill:none;stroke:#000000;stroke-width:1.32291667;stroke-linecap:butt;stroke-linejoin:miter;stroke-opacity:1;stroke-miterlimit:4;stroke-dasharray:none"
       d="m 22.97983,102.79924 c 3.54765,-1.93675 7.21153,-7.83739 10.64295,-5.81025 3.81271,2.252387 -0.25559,7.41458 -3.80105,9.85216 -1.85137,1.27285 -5.45231,-0.95041 -7.22201,-2.27358 -2.52248,-1.886 -5.02573,-4.29796 -4.94137,-6.820721 0.15916,-4.760083 13.82708,-7.646039 19.38538,-6.062868 7.69186,2.190873 -3.32485,9.735349 -7.60211,10.610019 -2.07288,0.42389 -4.30627,0.66441 -6.46179,0.50524 -1.40791,-0.10397 -2.92587,-0.52282 -3.80106,-1.2631 -2.40411,-2.033533 3.44331,-9.685732 4.18116,-10.862635 2.00641,-3.200317 3.08591,-4.521093 3.42095,-8.083824 0.14808,-1.574644 -0.64958,-5.442635 -1.14032,-7.073344 -0.18089,-0.601128 -0.57931,-1.167209 -0.76021,-1.768336 -0.0745,-0.247714 -0.33997,-0.870833 0,-0.757857 0.72564,0.24113 0.94676,0.881835 1.52043,1.263095 1.07882,0.716993 2.26255,1.361067 3.42095,2.020957 7.02478,4.001739 15.02445,7.802498 20.90581,12.630973 1.61497,1.325864 3.01474,2.290918 0.76021,3.78929 -2.03612,1.35321 -7.69313,1.532758 -10.26285,1.263097 -14.37295,-1.508258 -13.85427,-13.059083 -7.60212,-19.451697 1.188,-1.214688 2.4769,-2.385851 3.80106,-3.536671 0.32653,-0.283791 0.73218,-0.99036 1.14032,-0.757858 0.63007,0.358927 3.28575,5.55866 3.42095,5.810246"
       id="path855" />
    <path
       style="fill:#917c6f;fill-opacity:1;stroke:#000000;stroke-width:0;stroke-linecap:round;stroke-miterlimit:4;stroke-dasharray:none"
       d="m 92.013808,59.403108 c 0.725009,-2.896244 3.196844,-5.321376 6.673562,-6.547474 5.84829,-2.062453 13.38654,-1.679572 18.34781,0.931916 1.55349,0.817723 4.47221,3.452211 4.09926,3.700073 -0.12606,0.08378 -1.48014,0.247443 -3.00907,0.363703 -3.19997,0.243325 -12.85412,1.540814 -17.01915,2.287322 -1.559859,0.279578 -4.246375,0.994895 -5.97004,1.589596 -3.828526,1.320921 -4.002627,1.191274 -3.122372,-2.325136 z"
       id="path861" />
    <path
       style="fill:#ff0000;fill-opacity:1;stroke:#000000;stroke-width:0;stroke-linecap:round;stroke-miterlimit:4;stroke-dasharray:none"
       d="m 21.818494,188.52088 c 2.1674,-3.51698 2.8312,-5.12674 3.622034,-8.78367 0.81805,-3.78278 2.228231,-7.01869 3.708818,-8.51053 0.597728,-0.60227 1.560767,-1.10807 2.765708,-1.45256 2.280412,-0.65198 2.277888,-0.65201 2.277888,0.0227 0,1.11506 2.787682,8.52394 4.548434,12.08846 0.997524,2.01943 2.701501,4.85217 3.786616,6.29499 1.678016,2.23116 1.937329,2.76338 1.734719,3.56039 l -0.238217,0.9371 -1.829718,-0.46206 c -2.075683,-0.52417 -8.083336,-0.99219 -12.736079,-0.99219 -3.8588,0 -8.955344,-0.27337 -8.933042,-0.47915 0.0091,-0.0838 0.590862,-1.08437 1.292839,-2.22344 z"
       id="path865" />
    <path
       style="fill:#ff0000;fill-opacity:1;stroke:#000000;stroke-width:0;stroke-linecap:round;stroke-miterlimit:4;stroke-dasharray:none"
       d="m 18.090758,57.240137 c 1.317265,-4.082429 3.538945,-6.771832 8.078065,-9.7787 3.38228,-2.240537 5.4132,-3.087263 8.779902,-3.660489 3.000925,-0.510948 5.796819,-0.341742 8.296708,0.502113 2.246138,0.758199 5.911824,3.285066 8.249201,5.68642 3.439294,3.533435 7.272295,9.549924 8.660569,13.594117 l 0.540649,1.57497 -0.993047,-0.176729 c -0.546179,-0.0972 -2.019334,-0.17045 -3.273684,-0.162772 -3.133032,0.01918 -5.842167,0.839694 -7.972973,2.414784 -2.322422,1.716733 -3.314996,3.55292 -3.525311,6.52158 -0.167801,2.368527 -0.188793,2.413086 -1.606642,3.410361 -0.790142,0.555764 -1.954874,1.496259 -2.588292,2.08999 L 39.58423,80.335293 39.316318,79.255782 C 39.168966,78.662051 38.470466,76.834685 37.7641,75.194968 l -1.284306,-2.981301 0.828583,-0.744836 c 0.455721,-0.409658 0.952492,-0.744834 1.103936,-0.744834 0.271616,0 2.411434,3.521283 2.857342,4.702046 0.258347,0.684099 0.905504,1.069972 0.905504,0.539913 0,-0.427191 -2.093383,-4.268534 -2.87039,-5.267146 -0.721291,-0.927004 -1.058508,-0.919807 -2.091836,0.04465 -0.458057,0.427528 -0.965438,0.683304 -1.127516,0.568393 -0.162079,-0.114909 -0.764254,-1.004677 -1.338173,-1.977263 -1.361953,-2.308021 -4.544814,-6.540756 -5.91748,-7.869376 -1.632934,-1.580536 -3.605339,-2.109091 -7.870473,-2.109091 -1.920052,0 -3.477051,-0.08526 -3.460006,-0.189465 0.01704,-0.104205 0.283204,-0.97114 0.591473,-1.926521 z"
       id="path867" />
    <path
       style="fill:#0000ff;fill-opacity:1;stroke:#000000;stroke-width:0;stroke-linecap:round;stroke-miterlimit:4;stroke-dasharray:none"
       d="m 128.41287,159.1408 c 0.68369,0 5.9188,-3.45685 8.96129,-5.91734 3.77144,-3.05 7.78426,-6.78177 9.52822,-8.8609 0.69926,-0.83364 1.78724,-2.75091 2.41774,-4.26059 0.63049,-1.50967 1.20816,-2.78595 1.28371,-2.83615 0.65866,-0.43775 4.66255,2.95748 6.76583,5.73732 2.00024,2.64364 2.89902,4.57562 3.10921,6.68345 l 0.17824,1.78735 -2.6571,0.99146 c -1.46141,0.54531 -3.82204,1.70703 -5.24585,2.5816 -5.35213,3.28755 -7.62303,6.69878 -7.71019,11.58184 l -0.0502,2.81458 -3.08593,0.40329 c -1.69727,0.22181 -4.60508,0.78794 -6.4618,1.25807 -5.22298,1.32248 -5.39505,1.3333 -5.61865,0.35307 -0.10323,-0.45258 -0.27905,-2.30069 -0.39072,-4.10692 -0.11166,-1.80623 -0.45982,-4.30716 -0.77368,-5.55763 -0.67787,-2.70077 -0.67332,-2.6525 -0.25008,-2.6525 z"
       id="path871" />
    <path
       style="fill:#c6ff38;fill-opacity:1;stroke:#000000;stroke-width:0;stroke-linecap:round;stroke-miterlimit:4;stroke-dasharray:none"
       d="m 89.098367,104.63566 2.842242,-1.57637 h 2.497518 c 3.083576,0 5.585243,-0.76303 7.484943,-2.28298 1.07693,-0.861641 1.74011,-1.122553 3.83423,-1.508476 l 2.53208,-0.466634 0.22948,0.9291 c 1.14074,4.61865 2.62073,7.96941 5.76618,13.05483 2.81768,4.55553 5.15856,7.30181 8.79289,10.31565 1.395,1.15684 1.3813,1.25474 -0.79498,5.67728 -1.61495,3.28185 -5.90005,9.26902 -6.63395,9.26902 -0.23824,0 -1.29532,-0.87774 -2.34907,-1.95053 -1.90068,-1.93502 -1.91149,-1.95754 -1.36057,-2.83385 0.32718,-0.52041 0.55381,-1.69105 0.55163,-2.84925 -0.004,-2.37466 -1.0672,-4.1379 -3.12161,-5.17932 l -1.34354,-0.68106 0.51802,-1.46313 c 0.84874,-2.39727 0.72052,-2.76824 -2.39055,-6.91623 -3.29859,-4.398 -4.06114,-5.18387 -5.51803,-5.68677 -2.351992,-0.81188 -7.276235,-0.0754 -9.653336,1.44371 l -1.177105,0.75225 -1.629791,-2.98031 c -0.896384,-1.63918 -1.694844,-3.09513 -1.774359,-3.23544 -0.07951,-0.14032 1.134443,-0.96449 2.697678,-1.83149 z"
       id="path873" />
    <path
       style="fill:#009bff;fill-opacity:1;stroke:#000000;stroke-width:0;stroke-linecap:round;stroke-miterlimit:4;stroke-dasharray:none"
       d="m 33.581749,103.75399 c 0.27772,-0.24315 0.879441,-0.44208 1.337157,-0.44208 0.457716,0 1.294096,-0.15972 1.858624,-0.35493 2.782221,-0.96207 4.296246,-3.088306 4.556842,-6.399434 l 0.18416,-2.33994 h 2.400187 c 5.422873,0 8.899397,-1.154539 8.899397,-2.955452 0,-0.504618 -0.361875,-1.223187 -0.845563,-1.679012 -1.30915,-1.233737 -5.481016,-4.135761 -8.942154,-6.220323 -1.724732,-1.038762 -3.135874,-2.026874 -3.135874,-2.195803 0,-0.168931 1.060122,-1.242167 2.355824,-2.384968 l 2.355821,-2.077824 0.680124,1.838862 c 0.707904,1.913968 5.019313,7.689167 8.212717,11.001059 2.055585,2.131857 5.760212,4.605197 8.343074,5.570133 l 1.89162,0.706694 -1.044702,1.535045 C 58.856331,102.9876 56.246172,110.428 56.241309,115.7355 l -0.0021,2.44513 -2.185606,0.29197 c -4.288134,0.57283 -6.186808,2.08765 -7.640482,6.09582 -0.344749,0.95056 -0.758473,1.72909 -0.919384,1.73007 -0.500462,0.003 -6.968763,-9.06716 -8.6266,-12.09669 -1.747617,-3.19361 -3.820977,-8.28015 -3.802282,-9.3281 0.0066,-0.37269 0.239316,-0.87656 0.517036,-1.11971 z"
       id="path875" />
    <path
       style="fill:#ff9b00;fill-opacity:1;stroke:#000000;stroke-width:0;stroke-linecap:round;stroke-miterlimit:4;stroke-dasharray:none"
       d="m 85.994485,202.1896 c 3.307593,-0.72874 10.93683,-2.86419 13.858039,-3.87892 l 2.752096,-0.95599 0.35823,0.86227 c 0.23063,0.5551 0.21333,1.71007 -0.0485,3.24223 l -0.40679,2.37997 -4.033915,2.24444 c -6.974988,3.88081 -10.133846,4.99112 -11.030825,3.87723 -0.228336,-0.28355 -0.415156,-1.13396 -0.415156,-1.8898 0,-1.55705 -0.739198,-3.15138 -2.093213,-4.51474 l -0.92333,-0.92971 z"
       id="path877" />
    <path
       style="fill:#c6ff38;fill-opacity:1;stroke:#000000;stroke-width:1.32291667;stroke-linecap:round;stroke-miterlimit:4;stroke-dasharray:none"
       d="m 120.42486,80.944274 c 0.38792,-0.422769 1.19553,-0.982146 1.79469,-1.243062 1.9792,-0.861866 4.77905,-2.759866 5.54694,-3.760229 0.59656,-0.777157 0.73114,-1.377657 0.63869,-2.849906 l -0.11712,-1.865278 1.97457,-1.147977 c 2.21054,-1.285159 5.95858,-2.514245 10.65078,-3.49268 2.98126,-0.621663 7.34731,-1.211159 7.63437,-1.030776 0.0732,0.046 -0.18182,0.858527 -0.56671,1.805619 -1.08024,2.65811 -0.97421,10.119654 0.19497,13.721409 1.68039,5.176565 5.14427,11.363706 9.05148,16.167644 2.28232,2.806132 5.91399,6.630782 7.76725,8.179972 1.57021,1.31259 2.03243,2.6307 0.80974,2.30918 -2.87271,-0.75543 -6.91145,-1.2122 -12.01508,-1.35885 l -5.64832,-0.16231 -1.96133,-3.03143 c -5.92922,-9.164196 -12.34203,-14.676171 -22.1899,-19.072772 -2.33408,-1.042056 -4.24975,-2.008325 -4.25705,-2.147265 -0.007,-0.138941 0.30411,-0.598521 0.69203,-1.021289 z"
       id="path879" />
    <path
       style="fill:#0000ff;fill-opacity:1;stroke:#000000;stroke-width:0;stroke-linecap:round;stroke-miterlimit:4;stroke-dasharray:none"
       d="m 130.12625,114.26873 c 2.18662,-2.88115 4.05542,-4.14068 7.99617,-5.38928 4.93249,-1.56282 4.51273,-1.62865 5.92398,0.92894 1.55066,2.81023 1.92546,5.94969 0.99755,8.35587 -1.7747,4.60201 -5.4557,6.96946 -11.71462,7.53431 -1.71726,0.15498 -1.81021,0.12996 -2.57174,-0.69238 -1.24911,-1.34886 -1.91788,-3.17865 -2.1584,-5.90557 l -0.22283,-2.5262 z"
       id="path881" />
    <path
       style="fill:#ff2a00;fill-opacity:1;stroke:#000000;stroke-width:0;stroke-linecap:round;stroke-miterlimit:4;stroke-dasharray:none"
       d="m 71.697275,125.87521 c 0.13135,-0.82941 0.479644,-1.24413 1.619787,-1.9287 3.097953,-1.8601 7.419758,-3.06477 9.998816,-2.78709 l 1.241059,0.13362 -0.131146,2.36616 c -0.09336,1.68431 0.04273,2.71515 0.472229,3.57725 0.331856,0.6661 0.791831,1.89316 1.022167,2.72681 0.26139,0.94603 1.333759,2.71221 2.853185,4.69916 2.234491,2.92202 2.727412,3.37183 6.002657,5.47763 4.12868,2.6545 4.239223,2.68103 10.585861,2.54033 5.06356,-0.11225 7.19196,-0.64881 8.97863,-2.26346 l 1.11029,-1.00339 1.32894,1.59035 c 0.73092,0.87469 1.9617,2.43066 2.73507,3.45771 l 1.40612,1.86736 -1.7162,2.42717 c -1.91018,2.70151 -2.97707,5.03438 -3.87072,8.46376 -0.32963,1.26492 -0.67863,2.55477 -0.77558,2.86634 -0.16396,0.52698 -0.36607,0.46056 -2.89794,-0.95228 -7.15211,-3.99106 -14.850764,-4.80181 -22.547387,-2.37449 -2.554015,0.80547 -2.747944,0.66041 -7.369136,-5.51239 -4.853257,-6.4828 -6.609926,-9.77137 -8.549253,-16.00462 -1.332585,-4.28313 -1.819865,-7.33129 -1.497449,-9.36723 z"
       id="path883" />
    <path
       style="fill:#d4ff2a;fill-opacity:1;stroke:#000000;stroke-width:0;stroke-linecap:round;stroke-miterlimit:4;stroke-dasharray:none"
       d="m 153.7117,180.40637 c 2.43995,-2.32169 4.58141,-5.18081 6.03069,-8.05171 l 1.27173,-2.51919 2.55132,0.46449 c 1.40322,0.25547 3.69977,0.8127 5.10345,1.23829 l 2.55213,0.77381 -1.14032,0.61277 c -0.81466,0.43777 -1.61239,0.61313 -2.79334,0.61402 -2.0786,0.002 -4.02001,0.60341 -5.05116,1.56583 -1.62092,1.51288 -0.2799,4.51724 3.83727,8.59683 3.91518,3.87944 9.0733,6.737 12.5631,6.95986 2.07791,0.13269 2.19826,0.28449 1.39299,1.75692 -1.00241,1.83289 -9.22102,7.64686 -10.80958,7.64686 -0.78875,0 -3.07952,-2.08034 -5.09163,-4.62391 -1.11561,-1.41027 -3.19226,-3.64669 -4.6148,-4.96982 -2.10613,-1.95896 -7.49959,-7.99141 -7.48377,-8.3704 0.002,-0.054 0.75912,-0.81658 1.68192,-1.69465 z"
       id="path887" />
    <path
       style="fill:#00d4ff;fill-opacity:1;stroke:#000000;stroke-width:0;stroke-linecap:round;stroke-miterlimit:4;stroke-dasharray:none"
       d="M 9.4904054,71.664133 C 10.088983,67.258207 11.962556,63.832931 15.096455,61.415116 l 1.424168,-1.098747 -0.137041,5.687207 c -0.1998,8.291814 1.067609,13.949883 4.858014,21.68754 l 1.567254,3.19936 -0.908468,1.347791 c -0.49966,0.741283 -1.375836,1.631986 -1.947058,1.979339 -4.031686,2.4516 -3.123078,6.432434 2.36782,10.373974 4.307692,3.09221 6.311942,3.49159 8.60139,1.71397 0.89881,-0.69788 1.4034,-0.93009 1.509559,-0.69471 0.0877,0.19446 0.625557,1.60403 1.195231,3.13238 1.577843,4.23311 4.129455,8.59459 8.17545,13.97434 3.649165,4.85211 3.668422,4.88753 3.364429,6.18918 -0.168159,0.72002 -0.462418,2.62375 -0.653907,4.23051 -0.284451,2.38677 -0.561891,3.245 -1.516087,4.68988 -1.496499,2.26606 -3.100792,5.56237 -4.640675,9.53511 l -1.220073,3.14768 -1.39913,-0.48468 c -1.227907,-0.42536 -1.670034,-0.45139 -3.612798,-0.2127 -1.217517,0.14958 -2.628294,0.37673 -3.135056,0.50478 -0.852085,0.21531 -0.99002,0.13313 -1.833933,-1.09263 -0.501901,-0.729 -1.189453,-2.12121 -1.527889,-3.09379 -0.338439,-0.97259 -1.635376,-4.03727 -2.882082,-6.81042 -4.077145,-9.06909 -6.405171,-15.81404 -7.371263,-21.35665 -0.32694,-1.8757 -1.195014,-5.74077 -1.929058,-8.58906 -0.734042,-2.84828 -1.512004,-6.7702 -1.728804,-8.71537 -0.216799,-1.945168 -0.807667,-6.339204 -1.31304,-9.764524 C 9.3826618,83.976422 8.9773942,75.440235 9.4904054,71.664133 Z"
       id="path889" />
    <path
       style="fill:#a90000;fill-opacity:1;stroke:#000000;stroke-width:0;stroke-linecap:round;stroke-miterlimit:4;stroke-dasharray:none"
       d="m 43.720778,149.16233 c 0.164436,-1.11152 0.490496,-4.45897 0.724578,-7.43877 0.415131,-5.28449 0.453713,-5.45286 1.56763,-6.84183 0.628112,-0.78321 1.659583,-1.84132 2.292156,-2.35135 l 1.150134,-0.92733 2.122259,1.83261 c 4.939237,4.26511 6.607112,5.23963 8.426411,4.92344 0.615656,-0.107 0.888328,0.17374 1.749753,1.80157 0.561242,1.06057 1.697193,2.89459 2.524331,4.07558 0.827138,1.181 1.603785,2.63124 1.725885,3.22276 l 0.221999,1.0755 -2.163384,-0.65825 c -4.036957,-1.22831 -9.964042,-1.06323 -14.272284,0.39751 -0.829702,0.28131 -2.625947,1.20617 -3.991658,2.05524 -1.365713,0.84906 -2.459188,1.38862 -2.429946,1.19902 0.02924,-0.18961 0.187703,-1.25417 0.352136,-2.3657 z"
       id="path891" />
    <path
       style="fill:#00008d;fill-opacity:1;stroke:#000000;stroke-width:0;stroke-linecap:round;stroke-miterlimit:4;stroke-dasharray:none"
       d="m 147.85806,71.081435 c 0.28376,-2.282151 1.4199,-5.662445 1.90319,-5.662445 1.11309,0 2.36122,0.681866 4.22675,2.309124 6.34544,5.534948 10.3013,11.133042 14.21776,20.12013 2.30993,5.300564 2.33389,5.488987 1.16718,9.179858 -0.86293,2.729909 -2.52313,8.668038 -2.52313,9.024638 0,0.30223 -3.65607,-3.04201 -5.60849,-5.13014 -9.41235,-10.066555 -14.44638,-21.291119 -13.38326,-29.841165 z"
       id="path893" />
    <path
       style="fill:#008dff;fill-opacity:1;stroke:#000000;stroke-width:0;stroke-linecap:round;stroke-miterlimit:4;stroke-dasharray:none"
       d="m 165.36673,124.86599 c 0.81488,-3.24371 3.25707,-6.05043 6.13937,-7.05578 1.43048,-0.49895 2.53567,-0.0933 5.5176,2.02528 2.14467,1.5237 2.43063,1.86878 3.68417,4.44584 1.63531,3.3619 2.60994,6.07796 3.79089,10.56426 0.73639,2.79744 0.79743,3.38925 0.36106,3.50054 -0.28884,0.0737 -0.52515,0.24761 -0.52515,0.38655 0,0.13894 0.23896,0.19167 0.53104,0.11719 0.62424,-0.15921 0.77517,0.41478 1.41101,5.36626 0.49937,3.88869 0.53729,3.82931 -2.74411,4.29702 -2.36429,0.33698 -5.07269,-0.0229 -7.13724,-0.94847 -2.53651,-1.13711 -7.16728,-4.89589 -9.99815,-8.11545 l -1.44794,-1.64676 0.0444,-5.81425 c 0.0245,-3.19784 0.1923,-6.40285 0.37302,-7.12223 z"
       id="path895" />
    <path
       style="fill:#0efff0;fill-opacity:1;stroke:#000000;stroke-width:0;stroke-linecap:round;stroke-miterlimit:4;stroke-dasharray:none"
       d="m 42.149749,162.42485 c 0.118504,-1.45887 0.353843,-2.7946 0.522975,-2.96828 0.169619,-0.17417 1.060985,-0.31577 1.987831,-0.31577 1.572265,0 1.729248,0.0637 2.441244,0.99128 1.338268,1.7434 2.653384,4.69897 2.9112,6.54257 0.211066,1.5093 0.114914,2.03016 -0.613863,3.32528 -1.053695,1.87256 -0.727006,2.31979 0.443876,0.60765 1.568876,-2.29411 0.915778,-6.33153 -1.605576,-9.92563 -0.623748,-0.88913 -1.088356,-1.64359 -1.032468,-1.67659 0.05589,-0.033 1.469998,-0.30687 3.142464,-0.6086 5.828244,-1.05151 11.289948,-3.22022 14.771843,-5.86556 l 1.665746,-1.26554 0.270195,0.96929 c 0.520377,1.86678 1.753767,3.8967 3.633033,5.97927 1.798511,1.99309 2.304241,2.94754 1.561799,2.94754 -0.183463,0 -0.542187,-0.16707 -0.797166,-0.37126 -0.410552,-0.32877 -5.534755,-2.40756 -5.934615,-2.40756 -0.08617,0 -0.156665,0.10283 -0.156665,0.22851 0,0.12567 0.983525,0.59689 2.185609,1.04715 4.357209,1.63204 4.527166,1.77248 4.816978,3.98051 0.158199,1.2053 0.767905,2.93143 1.581914,4.47853 0.72848,1.38454 1.309852,2.63102 1.291942,2.76996 -0.01791,0.13894 -0.125984,2.70892 -0.240167,5.71106 l -0.2076,5.45843 -4.429258,0.14416 c -6.985047,0.22733 -14.489993,1.68648 -19.708063,3.83176 l -1.595001,0.65574 -0.356309,-0.82723 c -0.195969,-0.45498 -1.830123,-4.04925 -3.631451,-7.98728 l -3.275142,-7.16004 0.06961,-2.81842 c 0.03829,-1.55013 0.166574,-4.01205 0.285081,-5.47093 z"
       id="path897" />
    <path
       style="fill:#f0ff0e;fill-opacity:1;stroke:#000000;stroke-width:0;stroke-linecap:round;stroke-miterlimit:4;stroke-dasharray:none"
       d="m 126.05987,184.7841 c 1.31228,-1.67735 2.70709,-4.44492 3.01328,-5.97892 0.23654,-1.18509 1.14186,-1.98886 2.22633,-1.97661 0.39196,0.004 2.45286,2.1996 3.99133,4.25136 1.06958,1.42642 3.43118,5.54152 3.43118,5.97884 0,0.56785 -5.23842,1.67231 -9.35484,1.97235 -1.53503,0.11189 -1.58713,0.0892 -2.94582,-1.28195 -0.76073,-0.76772 -1.37518,-1.46528 -1.36545,-1.55013 0.01,-0.0848 0.46153,-0.72157 1.00399,-1.41494 z"
       id="path899" />
    <path
       style="fill:#ff7f00;fill-opacity:1;stroke:#000000;stroke-width:0;stroke-linecap:round;stroke-miterlimit:4;stroke-dasharray:none"
       d="m 116.13381,193.3691 c 1.16528,-0.53339 2.95051,-1.59006 3.96719,-2.34816 l 1.8485,-1.37837 2.69464,-0.12814 c 2.68811,-0.12782 2.6976,-0.126 3.92,0.75466 0.67395,0.48553 2.91855,1.89358 4.98799,3.129 3.29658,1.968 3.64968,2.25575 2.85079,2.32318 -3.72376,0.31432 -6.96436,1.89463 -8.16317,3.98085 -0.81552,1.41919 -0.57048,3.63864 0.56505,5.11793 l 0.8101,1.05535 h -0.97313 c -2.01291,0 -6.68804,-2.05968 -9.00459,-3.96707 -1.13675,-0.93596 -5.61674,-6.75143 -5.62028,-7.29566 -0.001,-0.15059 0.95163,-0.71019 2.11691,-1.24357 z"
       id="path901" />
    <path
       style="fill:#ff1c00;fill-opacity:1;stroke:#000000;stroke-width:0;stroke-linecap:round;stroke-miterlimit:4;stroke-dasharray:none"
       d="m 83.057157,160.74261 c 0.398381,-0.1016 1.667299,0.54352 3.896083,1.98077 1.817904,1.1723 4.844711,2.91006 6.726232,3.86171 1.881523,0.95164 4.74989,2.65005 6.374148,3.77424 l 2.9532,2.04399 0.56278,2.1172 c 0.72027,2.7097 0.71805,6.44548 -0.005,9.20293 -0.74016,2.82082 -1.21214,3.51445 -2.25101,3.3081 -1.339759,-0.26613 -6.395505,-2.10712 -8.267995,-3.0107 -1.599153,-0.77168 -1.818135,-1.00127 -2.21406,-2.32135 -0.383178,-1.27758 -4.319376,-10.72146 -4.861684,-11.66435 -0.144844,-0.25183 0.07749,-0.2265 0.809381,0.0922 1.39405,0.60706 1.262811,0.19972 -0.28067,-0.87113 -1.060685,-0.7359 -1.533247,-1.46482 -2.66074,-4.10421 -1.528458,-3.57802 -1.636903,-4.19092 -0.780185,-4.40941 z"
       id="path903" />
    <path
       style="fill:#ff0e00;fill-opacity:1;stroke:#000000;stroke-width:0;stroke-linecap:round;stroke-miterlimit:4;stroke-dasharray:none"
       d="m 47.401611,75.40453 c 4.160375,-2.032377 9.150107,-3.401759 13.655924,-3.747728 l 1.587569,-0.1219 1.017468,2.941756 c 0.559607,1.617964 2.027833,5.660307 3.262725,8.982982 l 2.245257,6.041229 -1.48853,1.537356 c -0.818692,0.845544 -1.975038,2.13253 -2.569659,2.859966 -0.594622,0.727437 -1.212816,1.32425 -1.373765,1.326253 -0.589169,0.0073 -3.499673,-1.351895 -5.332185,-2.490161 -2.635435,-1.637003 -4.646456,-3.605438 -8.179154,-8.005953 -3.171669,-3.950803 -4.63115,-6.370613 -4.63115,-7.678423 0,-0.618487 0.342677,-0.930774 1.8055,-1.645377 z"
       id="path905" />
    <path
       style="fill:#7fff7f;fill-opacity:1;stroke:#000000;stroke-width:0;stroke-linecap:round;stroke-miterlimit:4;stroke-dasharray:none"
       d="m 88.751218,92.19665 c 1.887321,-1.7623 2.847422,-3.801327 3.103071,-6.590191 l 0.225335,-2.458161 2.138957,-0.398868 c 1.176428,-0.219378 2.931205,-0.471039 3.899506,-0.559246 1.721795,-0.156844 1.781935,-0.13884 2.732313,0.81798 1.24964,1.2581 1.97704,2.6515 2.69225,5.157234 0.71172,2.493502 1.16032,6.523889 0.82498,7.411869 l -0.25054,0.663436 -2.31346,-0.776144 C 98.959131,94.510258 94.458077,93.722355 91.623114,93.682477 90.454473,93.666036 89.056291,93.58078 88.516046,93.493013 l -0.982263,-0.159575 z"
       id="path907" />
    <path
       style="fill:#0070ff;fill-opacity:1;stroke:#000000;stroke-width:0;stroke-linecap:round;stroke-miterlimit:4;stroke-dasharray:none"
       d="m 97.095055,63.988332 c 9.927365,0.316424 16.908495,1.304726 22.728675,3.217651 4.9462,1.625675 4.67026,1.354714 4.12932,4.054933 -0.2544,1.269936 -0.65419,2.549659 -0.88841,2.843829 -0.23422,0.294169 -1.48093,1.294484 -2.77047,2.222918 -1.28954,0.928435 -2.89166,2.370187 -3.56027,3.203892 l -1.21566,1.51583 -2.6641,-0.602211 c -2.70301,-0.611004 -7.22551,-1.132116 -9.82515,-1.132116 -1.24603,0 -1.57596,-0.137126 -2.58318,-1.073632 -0.635083,-0.590498 -1.623955,-1.691737 -2.197495,-2.447199 -1.401323,-1.845815 -4.618884,-7.532085 -5.349843,-9.454565 -0.324181,-0.852622 -0.686181,-1.767429 -0.80445,-2.032904 -0.20679,-0.464185 -0.01516,-0.476311 5.001033,-0.316426 z"
       id="path909" />
    <path
       style="fill:#ff7000;fill-opacity:1;stroke:#000000;stroke-width:0;stroke-linecap:round;stroke-miterlimit:4;stroke-dasharray:none"
       d="m 51.98184,186.09443 c 2.959587,-1.1528 6.553578,-2.08586 10.394683,-2.69864 3.38455,-0.53995 11.394204,-1.15306 12.241281,-0.93703 0.334565,0.0853 0.588608,0.80732 0.742595,2.11047 0.128731,1.08943 0.479325,2.51785 0.779098,3.17428 l 0.545041,1.1935 -1.58941,1.13432 c -1.210572,0.86395 -2.739554,1.4956 -6.41481,2.65006 -2.653969,0.83366 -6.206791,2.15906 -7.895161,2.94533 -2.793013,1.30071 -3.207507,1.41731 -4.597641,1.29339 -2.078548,-0.18529 -2.785385,-0.68926 -3.356102,-2.39291 -0.266988,-0.797 -1.063394,-2.71873 -1.76979,-4.27052 -0.706392,-1.55179 -1.284351,-2.93891 -1.284351,-3.08249 0,-0.14358 0.992056,-0.64747 2.204567,-1.11976 z"
       id="path911" />
    <path
       style="fill:#00b7ff;fill-opacity:1;stroke:#000000;stroke-width:0;stroke-linecap:round;stroke-miterlimit:4;stroke-dasharray:none"
       d="m 78.157225,188.31834 c 0.330745,-0.27788 1.392841,-1.60312 2.360216,-2.94498 l 1.758862,-2.43974 2.723147,0.57425 c 3.419282,0.72105 5.449126,1.53634 5.449126,2.18864 0,0.76178 -1.379956,2.38533 -2.868033,3.37431 -1.561846,1.03801 -6.971745,3.78588 -7.167772,3.64075 -0.373914,-0.27681 -2.459707,-2.94539 -2.643999,-3.38275 -0.117497,-0.27883 0.05657,-0.73164 0.388453,-1.01048 z"
       id="path913" />
    <path
       style="fill:#00b7ff;fill-opacity:1;stroke:#000000;stroke-width:0;stroke-linecap:round;stroke-miterlimit:4;stroke-dasharray:none"
       d="m 173.67335,110.66079 c 2.84272,0.91281 6.97981,0.37605 7.48875,-0.97161 0.13208,-0.34974 0.14211,-1.87087 0.0223,-3.38028 l -0.21784,-2.74438 h 1.05768 c 0.58173,0 1.63888,0.25877 2.34924,0.57505 1.20669,0.53726 1.49357,0.97296 4.36623,6.63126 1.69107,3.33092 4.06044,7.7614 5.26527,9.84551 5.91139,10.2255 6.37944,11.54544 4.59409,12.95557 -0.85474,0.67512 -5.70051,2.58052 -6.56268,2.58052 -0.19766,0 -0.55415,-0.43202 -0.79218,-0.96005 -0.75364,-1.67177 -6.35762,-8.92365 -8.81342,-11.40512 -1.44895,-1.46409 -3.1475,-3.67862 -4.39394,-5.72875 -2.92112,-4.8046 -4.12032,-6.47174 -5.04794,-7.01771 -1.26698,-0.74572 -0.96926,-0.91101 0.68444,-0.38001 z"
       id="path915" />
    <path
       style="fill:#ff4600;fill-opacity:1;stroke:#000000;stroke-width:0;stroke-linecap:round;stroke-miterlimit:4;stroke-dasharray:none"
       d="m 161.55013,167.85617 c 0.17297,-0.55576 0.32435,-2.94379 0.3364,-5.30672 0.0182,-3.56462 0.17781,-4.76916 0.93743,-7.07334 0.50354,-1.52741 1.01869,-3.18306 1.14478,-3.67923 0.21079,-0.82946 0.39232,-0.93629 2.25376,-1.32625 2.63457,-0.55194 5.91726,-0.53804 9.04455,0.0383 7.89116,1.45425 11.49751,5.28166 12.29885,13.05273 0.12895,1.25047 0.30577,2.50977 0.39295,2.79846 0.13582,0.44981 -0.28877,0.64464 -2.96819,1.36204 -1.71967,0.46043 -5.39344,1.60929 -8.16391,2.55301 l -5.03724,1.71585 -2.84472,-0.87351 c -1.5646,-0.48044 -3.95889,-1.06773 -5.32065,-1.3051 -1.36175,-0.23737 -2.45625,-0.54727 -2.43221,-0.68866 0.024,-0.1414 0.18523,-0.7118 0.3582,-1.26756 z"
       id="path917" />
    <path
       style="fill:#62ff9b;fill-opacity:1;stroke:#000000;stroke-width:0;stroke-linecap:round;stroke-miterlimit:4;stroke-dasharray:none"
       d="m 59.544534,117.45859 c 0.607438,-2.38137 3.012561,-8.19627 3.866017,-9.34692 3.987956,-5.37662 6.317393,-7.9262 8.670965,-9.490391 1.799534,-1.195978 2.71585,-1.624861 3.47154,-1.624861 0.564676,0 1.596276,-0.108567 2.292447,-0.241261 1.129956,-0.215376 1.362382,-0.167944 2.166247,0.442085 0.495266,0.375839 1.087419,1.251739 1.315895,1.946442 0.228476,0.694703 1.240189,2.512936 2.248249,4.040516 l 1.832838,2.77742 -2.596182,1.84757 c -5.58532,3.9748 -9.141555,8.69315 -10.935123,14.50853 -0.465863,1.5105 -1.017064,2.45311 -1.993135,3.40848 l -1.349188,1.32058 -0.670602,-0.94165 c -1.218734,-1.71132 -4.704768,-4.99367 -6.650326,-6.26175 -1.053107,-0.6864 -1.89584,-1.36168 -1.872739,-1.50062 0.0231,-0.13894 0.114496,-0.53682 0.203097,-0.88417 z"
       id="path919" />
    <path
       style="fill:#0000ff;fill-opacity:1;stroke:#000000;stroke-width:0;stroke-linecap:round;stroke-miterlimit:4;stroke-dasharray:none"
       d="m 85.023885,122.44783 c 0.082,-0.52103 0.278778,-0.94733 0.437271,-0.94733 1.074291,0 4.959345,0.98982 7.907906,2.01474 4.648716,1.61589 7.401148,3.07414 9.539078,5.05383 0.97246,0.90048 3.14445,2.55817 4.82664,3.68373 2.82224,1.88838 7.04056,5.89417 7.04056,6.68583 0,0.68894 -2.09689,2.10127 -3.96255,2.66892 -1.66581,0.50685 -2.60139,0.59881 -6.35704,0.62484 -5.361782,0.0372 -5.839,-0.0977 -9.811488,-2.77273 -2.351191,-1.58326 -3.284869,-2.47235 -5.20354,-4.95508 -1.386041,-1.7935 -2.520791,-3.64285 -2.786544,-4.54132 -0.246573,-0.83365 -0.776562,-2.23819 -1.177753,-3.1212 -0.699614,-1.53985 -0.779584,-2.31635 -0.45254,-4.39423 z"
       id="path921" />
    <path
       style="fill:#0000b7;fill-opacity:1;stroke:#000000;stroke-width:0;stroke-linecap:round;stroke-miterlimit:4;stroke-dasharray:none"
       d="m 43.341591,153.18991 c 0.391348,-0.89498 4.063762,-3.39829 6.259584,-4.26686 4.183578,-1.65485 10.775185,-1.87463 14.66578,-0.48901 1.747723,0.62245 2.062099,0.84651 2.163172,1.54173 0.104569,0.71927 -0.22542,1.04365 -2.850793,2.80232 -3.503139,2.34665 -6.968709,3.7703 -11.767547,4.83409 -4.947131,1.09665 -4.952214,1.0959 -7.076009,-1.0394 -1.866744,-1.87686 -1.95698,-2.09581 -1.394187,-3.38287 z"
       id="path923" />
    <path
       style="fill:#e20000;fill-opacity:1;stroke:#000000;stroke-width:0;stroke-linecap:round;stroke-miterlimit:4;stroke-dasharray:none"
       d="m 73.149432,120.61634 c 2.062883,-5.15512 5.913729,-9.72541 10.90576,-12.94328 l 1.660197,-1.07016 1.803464,3.26488 1.803466,3.26488 -1.660636,2.48923 c -0.91335,1.36907 -1.956544,3.08132 -2.318211,3.80499 l -0.657577,1.31577 h -2.202296 c -2.829113,0 -4.82064,0.47809 -7.845589,1.88346 -2.829142,1.31439 -2.822416,1.32347 -1.488578,-2.00977 z"
       id="path925" />
    <path
       style="fill:#ffff00;fill-opacity:1;stroke:#000000;stroke-width:0;stroke-linecap:round;stroke-miterlimit:4;stroke-dasharray:none"
       d="m 16.943956,200.19146 c 0.589447,-2.56803 1.403099,-5.06427 2.235883,-6.85956 l 0.955473,-2.0598 1.422258,0.10494 c 0.78224,0.0577 4.843205,0.21616 9.024368,0.35211 7.332176,0.2384 10.833603,0.57806 12.638513,1.22602 0.65618,0.23557 0.855237,0.53081 0.855237,1.26847 0,0.52879 0.260212,1.51948 0.578252,2.20153 l 0.578252,1.24009 -1.742974,2.27358 c -3.003772,3.91819 -4.553196,5.18309 -7.496363,6.11983 -1.40807,0.44815 -2.560124,0.93128 -2.560124,1.07363 0,0.35852 0.193503,0.33235 1.952503,-0.26405 0.848164,-0.28757 1.595509,-0.48651 1.660769,-0.44208 0.184348,0.1255 -5.737326,4.98927 -7.72659,6.34623 -2.18735,1.49209 -5.905188,2.77283 -7.71542,2.65784 -1.103222,-0.0701 -1.408916,-0.24767 -2.161926,-1.25599 -1.430192,-1.91509 -2.375516,-5.48546 -2.531713,-9.56195 -0.07719,-2.01464 -0.06207,-4.00402 0.0336,-4.42084 z"
       id="path927" />
    <path
       style="fill:none;stroke:#000000;stroke-width:1.32292;stroke-linecap:butt;stroke-linejoin:miter;stroke-miterlimit:4;stroke-dasharray:none;stroke-opacity:1"
       d="m 6.67958,2.5785027 c -0.28363,4.5357338 0,9.0357993 0,13.5867253"
       id="path3080" />
    <path
       id="path3082"
       style="fill:none;stroke:#000000;stroke-width:1.32292;stroke-linecap:butt;stroke-linejoin:miter;stroke-miterlimit:4;stroke-dasharray:none;stroke-opacity:1"
       d="m 6.67958,2.5785027 c 0.70338,0.016994 1.40604,-0.060638 2.10718,-0.036706 0.54664,0.1093033 0.85532,0.4738196 1.28078,0.7041917 0.93017,0.6313212 2.10587,1.1069545 2.81718,1.8722738 0.56512,0.5998217 0.74344,1.3210664 0.8505,2.0140516 0.13729,1.0800992 -0.60863,2.1763404 -1.9188,2.8212082 -0.40054,0.238411 -0.92221,0.412464 -1.46542,0.284753 C 9.64187,10.149155 8.91977,9.903272 8.19306,10.077318 7.48789,10.171329 6.68982,10.387665 6.00484,10.141286 5.78955,10.04843 5.67709,9.8829776 5.64118,9.7189722" />
    <path
       style="fill:none;stroke:#000000;stroke-width:1.32292;stroke-linecap:butt;stroke-linejoin:miter;stroke-miterlimit:4;stroke-dasharray:none;stroke-opacity:1"
       d="m 13.91922,10.710703 c 0.82645,-0.264462 1.62201,-0.659428 2.47933,-0.7933853 2.22806,-0.3481338 0.37326,6.6969043 0.79339,7.5371613"
       id="path3084" />
    <path
       id="path3086"
       style="fill:none;stroke:#000000;stroke-width:1.32292;stroke-linecap:butt;stroke-linejoin:miter;stroke-miterlimit:4;stroke-dasharray:none;stroke-opacity:1"
       d="m 17.09276,14.280938 c -0.54938,-0.635232 -0.30939,-1.461022 -1.01873,-2.048651 -0.34871,-0.327698 -1.08875,-0.289803 -1.5374,-0.07877 -0.72079,0.275866 -1.18485,0.781927 -1.97017,0.991247 -0.60932,0.18618 -1.34275,0.375988 -1.57592,0.837455 -0.30832,0.541681 -0.25302,1.20045 0.25217,1.682228 0.41083,0.372477 1.14378,0.495626 1.80705,0.454915 1.26316,-0.07342 2.30774,-0.647762 3.08586,-1.274149 0.44395,-0.336568 0.84535,-0.735001 1.47143,-0.931084 0.23114,-0.06195 0.49384,-0.07858 0.73413,-0.02989" />
    <path
       style="fill:none;stroke:#000000;stroke-width:1.32292;stroke-linecap:butt;stroke-linejoin:miter;stroke-miterlimit:4;stroke-dasharray:none;stroke-opacity:1"
       d="m 26.71256,11.008223 c -3.77079,-0.619081 -5.7796,-0.583998 -6.74378,3.272715 -0.10453,0.418151 -0.40395,0.984474 -0.0992,1.289251 0.25594,0.255937 0.89106,0.198346 1.19008,0.198346 2.28242,0 1.79203,-0.166051 3.47106,-1.58677 1.23635,-1.046139 1.4876,-0.883645 1.4876,-2.77685 0,-0.159009 -0.0185,-1.307748 -0.29752,-1.5867707 -0.42983,-0.4298295 0.27586,2.4052147 0.29752,2.5785027 0.27871,2.22968 0.54343,4.518462 -0.19835,6.743776 -0.2537,0.761122 -0.717,1.15132 -1.48759,1.388425 -0.78626,0.241925 -5.83787,0.225037 -6.14874,-0.396693 -0.0859,-0.171755 0.12623,-0.436775 0.15751,-0.495865"
       id="path3088" />
    <path
       style="fill:none;stroke:#000000;stroke-width:1.32292;stroke-linecap:butt;stroke-linejoin:miter;stroke-miterlimit:4;stroke-dasharray:none;stroke-opacity:1"
       d="m 28.001814,12.991686 c 1.75464,0.116977 3.48024,0.516908 5.157,-0.297519 0.52608,-0.255524 0.84363,-0.811301 1.28925,-1.190078 0.9371,-0.796528 1.12568,-1.404526 -0.39669,-1.7851174 -0.784,-0.1960002 -3.03514,0.9942824 -3.66941,1.4875974 -0.39914,0.310443 -0.45565,0.836258 -0.59503,1.289251 -0.45023,1.463232 -1.11353,2.490115 0.59503,3.173543 0.52716,0.210862 1.13454,0.714612 1.68595,0.793385 1.34218,0.191739 2.32486,-1.10553 3.47106,-1.487598"
       id="path3090" />
    <path
       style="fill:none;stroke:#000000;stroke-width:1.32292;stroke-linecap:butt;stroke-linejoin:miter;stroke-miterlimit:4;stroke-dasharray:none;stroke-opacity:1"
       d="M 47.83648,6.2479097 C 47.40672,5.5206404 47.23318,4.5591283 46.54723,4.0661003 46.03649,3.6990127 45.28856,3.9022071 44.66293,3.9669273 c -2.57557,0.2664388 -2.54717,4.8854128 -2.67767,6.8429497 -0.0857,1.285515 0.32809,2.510257 0.49586,3.768581 0.0851,0.638392 0.0932,1.253355 0.19835,1.88429 0.009,0.05197 -0.005,0.396693 0,0.396693 0.0757,0 0.19799,-0.29681 0.19835,-0.29752"
       id="path3092" />
    <path
       style="fill:none;stroke:#000000;stroke-width:1.32292;stroke-linecap:butt;stroke-linejoin:miter;stroke-miterlimit:4;stroke-dasharray:none;stroke-opacity:1"
       d="m 39.30758,10.512357 c 0.83483,0.110372 6.74514,-0.399426 7.0413,-0.9917321"
       id="path3094" />
    <path
       style="fill:none;stroke:#000000;stroke-width:1.32292;stroke-linecap:butt;stroke-linejoin:miter;stroke-miterlimit:4;stroke-dasharray:none;stroke-opacity:1"
       d="m 46.34887,9.5206249 c 1.91331,3.2526181 1.94077,2.4553741 2.38016,5.3553521 0.062,0.409104 -0.0418,1.503108 0.19835,1.983464"
       id="path3096" />
    <path
       style="fill:none;stroke:#000000;stroke-width:1.32292;stroke-linecap:butt;stroke-linejoin:miter;stroke-miterlimit:4;stroke-dasharray:none;stroke-opacity:1"
       d="m 47.04309,12.495821 c 0.52459,-0.391819 2.84265,-2.810223 4.0661,-1.586771 0.79856,0.798563 -0.32204,1.31377 0.39669,0.595039 0.21551,-0.21551 0.4787,-0.37953 0.69422,-0.595039"
       id="path3098" />
    <path
       style="fill:none;stroke:#000000;stroke-width:1.32292;stroke-linecap:butt;stroke-linejoin:miter;stroke-miterlimit:4;stroke-dasharray:none;stroke-opacity:1"
       d="m 56.2662,10.710704 c -3.4705,-1.1670885 -4.63557,4.599389 -1.78512,5.454525 1.54941,0.464824 2.0588,-0.349033 2.67767,-1.586771 0.56704,-1.134067 1.09091,-1.890048 1.09091,-3.272716 0,-0.266746 -0.0233,-0.728035 -0.29752,-0.892558 -0.126,-0.0756 -1.50065,-0.185292 -1.58677,-0.09917 -0.0964,0.09638 0.0311,0.356609 -0.0992,0.396693 -0.39957,0.122942 -2.33754,0.15108 -0.99174,-0.29752"
       id="path3100" />
    <path
       style="fill:none;stroke:#000000;stroke-width:1.32292;stroke-linecap:butt;stroke-linejoin:miter;stroke-miterlimit:4;stroke-dasharray:none;stroke-opacity:1"
       d="m 60.43147,10.115664 c -1.32769,2.02501 1.00811,4.686154 -0.29752,6.644603 -0.0367,0.05501 -0.009,-0.132895 0,-0.198346 0.13159,-0.921122 0.0992,-0.06924 0.0992,-0.991732"
       id="path3102" />
    <path
       style="fill:none;stroke:#000000;stroke-width:1.32292;stroke-linecap:butt;stroke-linejoin:miter;stroke-miterlimit:4;stroke-dasharray:none;stroke-opacity:1"
       d="m 60.43147,10.115664 c 0.80128,-0.641025 0.99345,-1.0522423 2.08263,-0.9917315 2.3708,0.1317104 -0.0237,7.0176025 0.19835,7.2396425 0.0523,0.05227 0.19835,-0.173093 0.19835,-0.09917 0,0.12975 -0.26036,0.26036 -0.29752,0.29752"
       id="path3104" />
    <path
       style="fill:none;stroke:#000000;stroke-width:1.32292;stroke-linecap:butt;stroke-linejoin:miter;stroke-miterlimit:4;stroke-dasharray:none;stroke-opacity:1"
       d="m 63.80335,11.305742 c 2.18468,-1.149829 1.96601,-1.7962758 2.18182,0.793386 0.10008,1.201042 -0.0127,2.557594 -0.0992,3.768581 -0.0389,0.545229 -0.18225,0.991732 -0.0992,0.991732 0.0181,0 -0.24415,-0.404268 0,-0.892559"
       id="path3106" />
    <path
       style="fill:none;stroke:#000000;stroke-width:1.32292;stroke-linecap:butt;stroke-linejoin:miter;stroke-miterlimit:4;stroke-dasharray:none;stroke-opacity:1"
       d="m 73.423152,5.256178 c -0.35195,0.4742868 -1.46481,10.486896 0.0992,11.008224 0.78892,0.262973 1.03044,-0.539369 0.89256,-1.090905"
       id="path3108" />
    <path
       style="fill:none;stroke:#000000;stroke-width:1.32292;stroke-linecap:butt;stroke-linejoin:miter;stroke-miterlimit:4;stroke-dasharray:none;stroke-opacity:1"
       d="m 69.952092,8.8264127 c 1.93431,-0.04623 4.14971,-0.060924 6.04956,-0.6942126"
       id="path3110" />
    <path
       style="fill:none;stroke:#000000;stroke-width:1.32292;stroke-linecap:butt;stroke-linejoin:miter;stroke-miterlimit:4;stroke-dasharray:none;stroke-opacity:1"
       d="m 79.175202,4.7603122 c -0.36364,0.8925588 -0.82378,1.7516436 -1.09091,2.6776759 -0.23197,0.8041659 -0.23255,1.6586277 -0.39669,2.4793297 -0.45903,2.2951562 -1.09091,4.4970292 -1.09091,6.8429502"
       id="path3112" />
    <path
       style="fill:none;stroke:#000000;stroke-width:1.32292;stroke-linecap:butt;stroke-linejoin:miter;stroke-miterlimit:4;stroke-dasharray:none;stroke-opacity:1"
       d="m 77.191732,11.305743 c 2.74717,-1.9378673 3.28955,-2.4427857 3.07437,0.892558 -0.0741,1.148631 -0.0569,2.339252 -0.19834,3.471062 -0.0415,0.331865 -0.14228,1.261214 0.19834,1.090905"
       id="path3114" />
    <path
       style="fill:none;stroke:#000000;stroke-width:1.32292;stroke-linecap:butt;stroke-linejoin:miter;stroke-miterlimit:4;stroke-dasharray:none;stroke-opacity:1"
       d="m 82.051222,12.198301 c -0.46571,2.498207 5.70286,1.085357 4.36362,-1.090905 -0.4988,-0.810539 -1.45833,-0.999595 -2.18181,-0.396692 -0.62108,0.517568 -0.79781,1.696252 -1.09091,2.380156 -1.28856,3.006638 -0.51533,3.847829 2.57851,3.074369 0.54795,-0.136989 1.04206,-0.314296 1.58677,-0.495866 0.8444,-0.281468 2.08045,-0.692027 2.67767,-1.289251"
       id="path3116" />
    <circle
       id="path1078"
       style="fill:#00008d;stroke:#000000;stroke-width:0.264583"
       cx="22.699999"
       cy="19.9"
       r="0" />
    <circle
       id="path2924"
       style="fill:#00008d;stroke:#000000;stroke-width:0.264583"
       cx="-156.41202"
       cy="-32.526913"
       r="0.18690158" />
    <path
       style="fill:none;stroke:#000000;stroke-width:1.32292;stroke-linecap:butt;stroke-linejoin:miter;stroke-miterlimit:4;stroke-dasharray:none;stroke-opacity:1"
       d="m 7.3388148,23.107349 c 0.1044924,-0.330948 0.089527,5.176297 0.4958659,4.363621"
       id="path3217" />
    <path
       style="fill:none;stroke:#000000;stroke-width:1.32292;stroke-linecap:butt;stroke-linejoin:miter;stroke-miterlimit:4;stroke-dasharray:none;stroke-opacity:1"
       d="M 9.7189709,23.702388 C 9.600022,24.113175 10.174284,27.051791 10.31401,27.47097"
       id="path3219" />
    <path
       style="fill:none;stroke:#000000;stroke-width:1.32292;stroke-linecap:butt;stroke-linejoin:miter;stroke-miterlimit:4;stroke-dasharray:none;stroke-opacity:1"
       d="m 17.256132,25.586679 c -0.812903,1.478603 -1.410895,3.062965 -2.18181,4.561964 -0.925503,1.79959 -2.333352,2.869952 -3.173541,4.363622 -0.595501,1.058667 -0.857294,2.408799 -1.388425,3.471061 -0.11553,0.231061 -0.297519,1.054087 -0.297519,1.289251 0,0.04675 -0.09917,0.145923 -0.09917,0.09917 0,-0.08722 0.45738,-0.358206 0.495866,-0.396692"
       id="path3221" />
    <path
       style="fill:none;stroke:#000000;stroke-width:1.32292;stroke-linecap:butt;stroke-linejoin:miter;stroke-miterlimit:4;stroke-dasharray:none;stroke-opacity:1"
       d="m 17.256132,25.586679 c 0.165289,1.02479 0.199531,2.079532 0.495866,3.074368 0.335941,1.127803 1.488,2.229118 2.082637,3.173543 0.818556,1.300059 0.887772,3.008161 1.785117,4.264445 0.733141,1.026398 1.983463,2.190123 1.983463,3.074369"
       id="path3223" />
    <path
       style="fill:none;stroke:#000000;stroke-width:1.32292;stroke-linecap:butt;stroke-linejoin:miter;stroke-miterlimit:4;stroke-dasharray:none;stroke-opacity:1"
       d="m 12.1983,35.404821 c 2.00271,0.44304 8.053987,-1.725048 9.520625,-0.991729"
       id="path3225" />
    <path
       style="fill:none;stroke:#000000;stroke-width:1.32292;stroke-linecap:butt;stroke-linejoin:miter;stroke-miterlimit:4;stroke-dasharray:none;stroke-opacity:1"
       d="m 25.785024,24.594947 c 0.129701,3.404316 0.286882,6.825103 0.59504,10.214836 0.05842,0.642681 0.198348,1.334336 0.198348,1.983465 0,0.297519 0,0.595038 0,0.892559 0,0.06611 -0.06612,0.198345 0,0.198345 0.06611,0 0,-0.132231 0,-0.198345"
       id="path3227" />
    <path
       style="fill:none;stroke:#000000;stroke-width:1.32292;stroke-linecap:butt;stroke-linejoin:miter;stroke-miterlimit:4;stroke-dasharray:none;stroke-opacity:1"
       d="m 25.28916,31.834589 c 3.116438,-0.329422 4.789959,-0.518139 6.049563,2.280983 0.329859,0.73302 0.880206,1.921346 0.595038,2.776847 -0.285782,0.857354 -2.023743,0.466421 -2.677674,0.793388 -0.856144,0.428069 -1.4283,0.968555 -2.479331,0.793385 -0.317582,-0.05293 -1.430673,-0.793388 -0.198344,-0.793385"
       id="path3229" />
    <path
       style="fill:none;stroke:#000000;stroke-width:1.32292;stroke-linecap:butt;stroke-linejoin:miter;stroke-miterlimit:4;stroke-dasharray:none;stroke-opacity:1"
       d="m 40.065961,31.437896 c -0.925616,-0.231405 -1.823934,-0.741857 -2.776847,-0.694214 -0.495247,0.02477 -0.810787,0.573154 -1.19008,0.892559 -0.658371,0.554418 -0.875765,0.862123 -0.793385,1.685946 0.160306,1.603047 1.198454,1.072745 2.280984,1.289251 0.298857,0.05977 0.466418,0.392554 0.694211,0.595037 0.04241,0.03769 1.513858,1.262991 1.289253,1.487599 -1.744826,1.744824 -5.573368,1.48677 -4.958659,-1.58677"
       id="path3231" />
    <path
       style="fill:none;stroke:#000000;stroke-width:1.32292;stroke-linecap:butt;stroke-linejoin:miter;stroke-miterlimit:4;stroke-dasharray:none;stroke-opacity:1"
       d="m 42.941983,26.677583 c 0.672743,7.400157 -0.01535,-0.909574 0.396692,6.644602 0.06522,1.195626 0.396695,2.372834 0.396695,3.570235 0,0.645893 -0.198347,1.317321 -0.198347,1.983465"
       id="path3233" />
    <path
       style="fill:none;stroke:#000000;stroke-width:1.32292;stroke-linecap:butt;stroke-linejoin:miter;stroke-miterlimit:4;stroke-dasharray:none;stroke-opacity:1"
       d="m 46.611391,31.437897 c 0.760328,0.826442 1.737387,1.496674 2.280984,2.479328 0.462052,0.83525 0.243533,2.201789 0.297519,3.173542 0.01841,0.331714 0.247747,1.288884 0.09917,0.991733"
       id="path3237" />
    <path
       style="fill:none;stroke:#000000;stroke-width:1.32292;stroke-linecap:butt;stroke-linejoin:miter;stroke-miterlimit:4;stroke-dasharray:none;stroke-opacity:1"
       d="m 48.991547,32.645476 c -1.190604,-1.272431 5.288899,-2.048906 4.66114,-0.793387"
       id="path3239" />
    <path
       style="fill:none;stroke:#000000;stroke-width:1.32292;stroke-linecap:butt;stroke-linejoin:miter;stroke-miterlimit:4;stroke-dasharray:none;stroke-opacity:1"
       d="m 55.338629,31.554572 c 3.482655,-0.646123 3.484909,0.05217 4.066101,3.074368 0.07596,0.394973 0,3.439268 0,2.975195"
       id="path3241" />
    <path
       style="fill:none;stroke:#000000;stroke-width:1.32292;stroke-linecap:butt;stroke-linejoin:miter;stroke-miterlimit:4;stroke-dasharray:none;stroke-opacity:1"
       d="m 59.603078,33.835552 c -0.324951,0.05748 -5.851218,0.258149 -5.851218,1.884291 0,0.455592 0.3469,0.739143 0.694211,0.991733 1.55208,1.128784 4.617143,-0.424281 5.950391,-1.090906"
       id="path3243" />
    <path
       style="fill:none;stroke:#000000;stroke-width:1.32292;stroke-linecap:butt;stroke-linejoin:miter;stroke-miterlimit:4;stroke-dasharray:none;stroke-opacity:1"
       d="m 65.652641,31.356224 c -0.859502,0.42975 -1.944164,0.56742 -2.578503,1.289251 -0.270703,0.308044 -0.777097,3.852664 -0.09917,4.462793 0.723661,0.651296 3.693459,-0.841488 4.165274,-1.785117"
       id="path3245" />
    <path
       style="fill:none;stroke:#000000;stroke-width:1.32292;stroke-linecap:butt;stroke-linejoin:miter;stroke-miterlimit:4;stroke-dasharray:none;stroke-opacity:1"
       d="m 69.1237,23.521543 c 0.03306,1.02479 0.02982,2.051395 0.09917,3.07437 0.143246,2.112867 0.373319,4.125529 0.297521,6.247908 -0.05332,1.492888 -0.297521,3.975576 -0.297521,5.157007"
       id="path3247" />
    <path
       style="fill:none;stroke:#000000;stroke-width:1.32292;stroke-linecap:butt;stroke-linejoin:miter;stroke-miterlimit:4;stroke-dasharray:none;stroke-opacity:1"
       d="m 66.24768,29.075241 c 1.598514,-1.007049 4.70328,-0.934699 6.148736,-2.380155"
       id="path3249" />
    <path
       style="fill:none;stroke:#000000;stroke-width:1.32292;stroke-linecap:butt;stroke-linejoin:miter;stroke-miterlimit:4;stroke-dasharray:none;stroke-opacity:1"
       d="m 80.62779,25.289159 c 0.05016,3.734317 1.218121,7.321729 1.58677,11.008221 0.07477,0.747665 -0.103375,1.871689 0.09917,2.479331"
       id="path3251" />
    <path
       style="fill:none;stroke:#000000;stroke-width:1.32292;stroke-linecap:butt;stroke-linejoin:miter;stroke-miterlimit:4;stroke-dasharray:none;stroke-opacity:1"
       d="m 79.239366,27.867663 c 1.15702,-0.46281 2.259991,-1.094833 3.47106,-1.388425 0.998011,-0.241943 2.04774,-0.222791 3.074369,-0.198347 1.304904,0.03107 2.516677,0.700092 2.876021,1.983464 0.970719,3.466851 -5.027314,6.377601 -6.743774,4.661138"
       id="path3253" />
    <path
       style="fill:none;stroke:#000000;stroke-width:1.32292;stroke-linecap:butt;stroke-linejoin:miter;stroke-miterlimit:4;stroke-dasharray:none;stroke-opacity:1"
       d="m 87.470738,34.016399 c 0.892559,-0.462809 1.755643,-0.987541 2.677676,-1.388425 0.604047,-0.26263 1.225619,-0.59504 1.884291,-0.59504 2.122768,0 0.495866,5.536237 0.495866,6.347085"
       id="path3255" />
    <path
       style="fill:none;stroke:#000000;stroke-width:1.32292;stroke-linecap:butt;stroke-linejoin:miter;stroke-miterlimit:4;stroke-dasharray:none;stroke-opacity:1"
       d="m 93.222782,35.008129 c -0.991732,0.06612 -1.998998,0.0114 -2.975194,0.198348 -0.527235,0.100959 -4.451342,1.30452 -3.867753,2.082635 1.167627,1.556838 3.720311,0.629354 5.157004,0.198348 0.505817,-0.151746 0.826045,-0.264263 1.289251,-0.495866 0.198345,-0.09917 0.689462,-0.498171 0.59504,-0.297519 -0.270756,0.575352 -0.59504,1.123961 -0.892561,1.685944"
       id="path3257" />
    <path
       style="fill:none;stroke:#000000;stroke-width:1.32292;stroke-linecap:butt;stroke-linejoin:miter;stroke-miterlimit:4;stroke-dasharray:none;stroke-opacity:1"
       d="m 95.999632,31.83459 c -0.605007,2.268013 -0.396692,4.552883 -0.396692,6.842947"
       id="path3259" />
    <path
       style="fill:none;stroke:#000000;stroke-width:1.32292;stroke-linecap:butt;stroke-linejoin:miter;stroke-miterlimit:4;stroke-dasharray:none;stroke-opacity:1"
       d="m 96.495498,25.685852 c -0.766276,5.776785 0.344508,-0.281937 -0.396695,4.165275"
       id="path3261" />
    <path
       style="fill:none;stroke:#000000;stroke-width:1.32292;stroke-linecap:butt;stroke-linejoin:miter;stroke-miterlimit:4;stroke-dasharray:none;stroke-opacity:1"
       d="m 98.478961,32.429627 c 0.800541,2.125482 -0.09917,3.905184 -0.09917,5.950392"
       id="path3263" />
    <path
       style="fill:none;stroke:#000000;stroke-width:1.32292;stroke-linecap:butt;stroke-linejoin:miter;stroke-miterlimit:4;stroke-dasharray:none;stroke-opacity:1"
       d="m 98.478961,32.429627 c 1.029488,0.07628 4.067009,-1.280157 4.264449,0.694214 0.11572,1.157234 -0.24872,2.597369 -0.29752,3.768579 -0.004,0.102074 -0.19835,2.744401 -0.19835,1.983465"
       id="path3265" />
    <g
       id="g3357">
      <path
         style="fill:none;stroke:#000000;stroke-width:1.32292;stroke-linecap:butt;stroke-linejoin:miter;stroke-miterlimit:4;stroke-dasharray:none;stroke-opacity:1"
         d="m 105.32191,26.280891 c -0.29744,3.623547 1.11888,8.250869 -0.89256,11.603261"
         id="path3267" />
      <path
         style="fill:none;stroke:#000000;stroke-width:1.32292;stroke-linecap:butt;stroke-linejoin:miter;stroke-miterlimit:4;stroke-dasharray:none;stroke-opacity:1"
         d="m 103.23927,31.735416 c 0.82645,0.09917 1.64832,0.345006 2.47933,0.297518 0.57054,-0.0326 0.78668,-0.523242 1.28925,-0.595037 0.50435,-0.07205 0.8689,-0.07551 0.99173,-0.198347"
         id="path3269" />
    </g>
    <path
       style="fill:none;stroke:#000000;stroke-width:1.32292;stroke-linecap:butt;stroke-linejoin:miter;stroke-miterlimit:4;stroke-dasharray:none;stroke-opacity:1"
       d="m 109.09049,34.313919 c 1.0909,0 2.20299,0.213942 3.27271,0 1.89102,-0.378206 3.05263,-2.655729 -0.0992,-1.685944 -0.78533,0.241639 -1.85687,0.730856 -2.57851,1.190077 -0.64049,0.407586 -1.11843,1.083133 -1.38842,1.785118 -0.57418,1.492864 0.306,1.785117 1.98346,1.785117 0.9586,0 2.12343,0.05932 3.07437,-0.09917 0.28976,-0.04829 0.15246,-0.198347 0.49587,-0.198347"
       id="path3271" />
    <g
       id="g3353"
       transform="translate(2.280983,-0.19834635)">
      <path
         style="fill:none;stroke:#000000;stroke-width:1.32292;stroke-linecap:butt;stroke-linejoin:miter;stroke-miterlimit:4;stroke-dasharray:none;stroke-opacity:1"
         d="m 113.75163,32.429627 c 0.7739,1.287917 1.67329,4.337762 1.4876,5.670373"
         id="path3273" />
      <path
         style="fill:none;stroke:#000000;stroke-width:1.32292;stroke-linecap:butt;stroke-linejoin:miter;stroke-miterlimit:4;stroke-dasharray:none;stroke-opacity:1"
         d="m 113.15659,32.925493 c 0.66116,-0.462809 1.29409,-0.968806 1.98347,-1.388425 0.4658,-0.28353 3.21222,-0.12098 3.27271,0"
         id="path3281" />
    </g>
    <path
       style="fill:none;stroke:#000000;stroke-width:1.32292;stroke-linecap:butt;stroke-linejoin:miter;stroke-miterlimit:4;stroke-dasharray:none;stroke-opacity:1"
       d="m 133.48709,28.363528 c -0.76033,-0.429752 -1.41638,-1.165738 -2.28098,-1.289251 -0.47198,-0.06743 -0.80668,0.51 -1.19008,0.793385 -1.08028,0.79847 -1.96375,1.814078 -2.47933,3.074368 -0.48164,1.177353 -0.93283,4.874392 -0.19834,6.049563 0.40793,0.6527 1.02438,0.505198 1.68594,0.694214 2.62019,0.748625 2.01258,0.268401 3.66941,-1.388425"
       id="path3283" />
    <path
       style="fill:none;stroke:#000000;stroke-width:1.32292;stroke-linecap:butt;stroke-linejoin:miter;stroke-miterlimit:4;stroke-dasharray:none;stroke-opacity:1"
       d="m 137.85071,33.42136 c -0.82644,0.429749 -1.93145,0.53591 -2.47933,1.289251 -0.38936,0.535366 0.002,1.328629 0.0992,1.983462 0.0369,0.249042 0.10092,0.53694 0.29751,0.694214 0.46908,0.375261 2.21234,0.266993 2.67768,-0.198348 0.56759,-0.567595 0.53787,-3.178596 -0.19835,-3.669408 -0.59205,-0.3947 -1.35992,-0.255056 -1.98346,-0.09917 -0.47638,0.119094 -0.69421,0.354081 -0.69421,0.694211"
       id="path3285" />
    <path
       style="fill:none;stroke:#000000;stroke-width:1.40157;stroke-linecap:butt;stroke-linejoin:miter;stroke-miterlimit:4;stroke-dasharray:none;stroke-opacity:1"
       d="m 141.61929,26.060455 c 0.62966,3.694379 0.19835,8.578074 0.19835,12.022042"
       id="path3287" />
    <path
       style="fill:none;stroke:#000000;stroke-width:1.32292;stroke-linecap:butt;stroke-linejoin:miter;stroke-miterlimit:4;stroke-dasharray:none;stroke-opacity:1"
       d="m 146.67712,32.528802 c -3.35707,-0.100505 -1.89211,7.172653 0.99173,5.05783 0.58347,-0.427876 0.49587,-0.749525 0.49587,-1.289251 0,-1.881222 -1.17856,-3.03747 -2.77685,-3.570235"
       id="path3289" />
    <g
       id="g3361"
       transform="translate(-0.59503904,-0.59503904)">
      <path
         style="fill:none;stroke:#000000;stroke-width:1.32292;stroke-linecap:butt;stroke-linejoin:miter;stroke-miterlimit:4;stroke-dasharray:none;stroke-opacity:1"
         d="m 150.84239,32.5288 c 0.26511,2.063197 0.85676,4.154181 0.59504,6.247911"
         id="path3291" />
      <path
         style="fill:none;stroke:#000000;stroke-width:1.32292;stroke-linecap:butt;stroke-linejoin:miter;stroke-miterlimit:4;stroke-dasharray:none;stroke-opacity:1"
         d="m 150.94157,35.107302 c 2.08782,-3.131727 0.56139,-2.486057 2.5785,-2.082636 0.94964,0.189929 0.17815,-0.158858 0.69421,0.09917"
         id="path3293" />
    </g>
    <path
       style="fill:none;stroke:#000000;stroke-width:1.32292;stroke-linecap:butt;stroke-linejoin:miter;stroke-miterlimit:4;stroke-dasharray:none;stroke-opacity:1"
       d="m 168.59439,33.024667 c -0.6563,-0.132067 -4.39005,2.405959 -2.87603,3.768579 0.92441,0.831964 3.2335,-0.569643 3.66941,-1.58677 0.47233,-1.102098 0.0477,-2.828321 0.49587,-2.380157 0.0824,0.08243 -0.18289,0.182891 -0.19835,0.198348 -0.055,0.05503 -0.0104,0.532685 0,0.595037 0.12201,0.732052 0.39669,1.443302 0.39669,2.18181 0,1.775822 0.28738,3.639949 -0.89255,5.157007 -1.26556,1.627142 -2.94219,1.37742 -4.76032,1.983462 -0.16812,0.05604 -0.53935,0.396692 -0.79338,0.396692 -1.05376,0 -2.28099,-1.406665 -2.28099,-2.380154"
       id="path3301" />
    <path
       style="fill:none;stroke:#000000;stroke-width:1.32292;stroke-linecap:butt;stroke-linejoin:miter;stroke-miterlimit:4;stroke-dasharray:none;stroke-opacity:1"
       d="m 174.94147,27.173449 c 0.83176,3.532606 1.18205,7.944059 0.39669,11.22407"
       id="path3303" />
    <path
       style="fill:none;stroke:#000000;stroke-width:1.32292;stroke-linecap:butt;stroke-linejoin:miter;stroke-miterlimit:4;stroke-dasharray:none;stroke-opacity:1"
       d="m 173.25553,29.05774 c 2.81489,-1.591029 1.58872,-1.459695 4.76031,-1.090906 0.59921,0.06968 1.24991,0.01921 1.78512,0.297519 1.8733,0.974116 -0.66365,3.764086 -1.28926,4.363619 -0.53876,0.516313 -2.68887,0.198348 -3.47106,0.198348 -0.20108,0 0.39551,-0.07423 0.59504,-0.09917 0.66181,-0.08273 1.31811,-0.333325 1.98347,-0.396693 1.6073,-0.153077 5.86315,-0.0597 5.35535,2.479331 -0.83532,4.176599 -3.38625,3.669406 -6.74378,3.669406 -0.41245,0 -2.08264,-0.625411 -2.08264,-1.289251 0,-0.380386 0.72517,-0.725159 0.99174,-0.991732"
       id="path3305" />
    <path
       style="fill:none;stroke:#000000;stroke-width:1.32292;stroke-linecap:butt;stroke-linejoin:miter;stroke-miterlimit:4;stroke-dasharray:none;stroke-opacity:1"
       d="m 188.23067,32.5288 c -4.6967,0.337238 -4.52983,5.752045 0,5.752045 0.21146,0 0.9805,0.09315 1.19008,0 1.19042,-0.529077 2.59195,-3.629544 1.38842,-4.661139 -0.15723,-0.134776 -2.45574,-1.113226 -2.5785,-1.090906 -1.384,0.251638 -0.27317,0.590169 0.19835,0.495866"
       id="path3307" />
    <path
       style="fill:none;stroke:#000000;stroke-width:1.32292;stroke-linecap:butt;stroke-linejoin:miter;stroke-miterlimit:4;stroke-dasharray:none;stroke-opacity:1"
       d="m 198.54469,33.718878 c -1.97584,-2.933668 -7.16529,1.424041 -4.95866,3.76858 0.81549,0.866457 4.79622,1.365504 5.25618,-0.198345 0.26889,-0.914241 0.74136,-2.828179 -0.29752,-3.570235 -0.37363,-0.26688 -3.00199,0.360503 -1.88429,-0.198347"
       id="path3309" />
    <path
       style="fill:none;stroke:#000000;stroke-width:1.32292;stroke-linecap:butt;stroke-linejoin:miter;stroke-miterlimit:4;stroke-dasharray:none;stroke-opacity:1"
       d="m 202.41244,22.611483 c 0.0552,1.876317 0.19661,5.560488 0.0992,7.338816 -0.0837,1.52732 -0.49586,3.032352 -0.49586,4.561964 0,0.998548 0.24717,2.184831 0,3.173542 -0.12543,0.501719 -0.19835,0.968137 -0.19835,1.487599"
       id="path3311" />
    <path
       style="fill:none;stroke:#000000;stroke-width:1.32292;stroke-linecap:butt;stroke-linejoin:miter;stroke-miterlimit:4;stroke-dasharray:none;stroke-opacity:1"
       d="m 201.91657,35.206477 c 0.53584,-1.997509 5.04502,-3.247081 5.85122,-4.859486"
       id="path3313" />
    <path
       style="fill:none;stroke:#000000;stroke-width:1.32292;stroke-linecap:butt;stroke-linejoin:miter;stroke-miterlimit:4;stroke-dasharray:none;stroke-opacity:1"
       d="m 201.91657,35.206477 c 0.4793,1.586103 2.34666,1.543497 3.27272,2.578502 0.10735,0.119981 2.08264,3.732969 2.08264,1.685944"
       id="path3315" />
    <path
       style="fill:none;stroke:#000000;stroke-width:1.32292;stroke-linecap:butt;stroke-linejoin:miter;stroke-miterlimit:4;stroke-dasharray:none;stroke-opacity:1"
       d="m 211.0405,23.801561 c 0.002,-2.2641 -1.00071,5.571663 -0.19834,3.966928"
       id="path3317" />
    <path
       style="fill:none;stroke:#000000;stroke-width:1.32292;stroke-linecap:butt;stroke-linejoin:miter;stroke-miterlimit:4;stroke-dasharray:none;stroke-opacity:1"
       d="m 214.51157,24.099081 c 0.51226,0.338016 -1.14943,5.769909 -0.0992,3.669408"
       id="path3319" />
    <g
       id="g3366"
       transform="translate(-0.59503904,-0.69421222)">
      <path
         style="fill:none;stroke:#000000;stroke-width:1.32292;stroke-linecap:butt;stroke-linejoin:miter;stroke-miterlimit:4;stroke-dasharray:none;stroke-opacity:1"
         d="m 156.49526,29.75195 -0.69421,-0.793384"
         id="path3297" />
      <path
         style="fill:none;stroke:#000000;stroke-width:1.32292;stroke-linecap:butt;stroke-linejoin:miter;stroke-miterlimit:4;stroke-dasharray:none;stroke-opacity:1"
         d="m 156.39609,29.454432 c 0.18891,-1.02176 -0.20427,-1.63421 0,0"
         id="path3299" />
      <path
         style="fill:none;stroke:#000000;stroke-width:1.49641;stroke-linecap:butt;stroke-linejoin:miter;stroke-miterlimit:4;stroke-dasharray:none;stroke-opacity:1"
         d="m 156.39609,31.95233 c 0.0177,0.198984 -0.2367,6.725207 -0.19834,6.725207 0.20108,0 0.0597,-0.509059 0.0992,-0.761345"
         id="path3321" />
    </g>
    <path
       style="fill:none;stroke:#000000;stroke-width:1.32292;stroke-linecap:butt;stroke-linejoin:miter;stroke-miterlimit:4;stroke-dasharray:none;stroke-opacity:1"
       d="m 40.305909,29.110945 c 1.59851,-1.007049 4.70328,-0.934699 6.14874,-2.380155"
       id="path3249-5" />
    <g
       id="g3370"
       style="stroke-width:1.32292;stroke-miterlimit:4;stroke-dasharray:none"
       transform="translate(0.3966927,-1.5867708)">
      <path
         style="fill:none;stroke:#000000;stroke-width:1.32292;stroke-linecap:butt;stroke-linejoin:miter;stroke-miterlimit:4;stroke-dasharray:none;stroke-opacity:1"
         d="m 157.88369,33.12384 c 0.2314,0.892559 0.62525,1.758191 0.69421,2.677676 0.0336,0.448373 -0.32565,0.845264 -0.39669,1.289251 -0.15226,0.9516 0.36029,2.348767 -0.0992,2.578502"
         id="path3343" />
      <path
         style="fill:none;stroke:#000000;stroke-width:1.32292;stroke-linecap:butt;stroke-linejoin:miter;stroke-miterlimit:4;stroke-dasharray:none;stroke-opacity:1"
         d="m 158.87542,34.512265 c 1.14385,-0.450048 3.5815,-2.043195 4.16527,0 0.34932,1.222613 -0.30305,3.487661 -0.69421,4.661138 -0.15781,0.47344 -0.37953,1.05659 -0.59504,1.487599 -0.0661,0.13223 -0.33057,0.462806 -0.19834,0.396692 0.32078,-0.160393 0.49581,-0.7933 0.69421,-1.090906"
         id="path3345" />
    </g>
  </g>
</svg>
